<?xml version="1.0" encoding="UTF-8"?>
<!DOCTYPE svg PUBLIC "-//W3C//DTD SVG 1.1//EN" "http://www.w3.org/Graphics/SVG/1.1/DTD/svg11.dtd">
<!-- Creator: CorelDRAW -->
<svg xmlns="http://www.w3.org/2000/svg" xml:space="preserve" width="7.98446in" height="7.91235in" version="1.1" style="shape-rendering:geometricPrecision; text-rendering:geometricPrecision; image-rendering:optimizeQuality; fill-rule:evenodd; clip-rule:evenodd"
viewBox="0 0 854.96 847.24"
 xmlns:xlink="http://www.w3.org/1999/xlink"
 xmlns:xodm="http://www.corel.com/coreldraw/odm/2003">
 <defs>
  <style type="text/css">
   <![CDATA[
    .fil0 {fill:white}
    .fil1 {fill:#038F8F;fill-rule:nonzero}
    .fil2 {fill:#ADF5FF;fill-rule:nonzero}
   ]]>
  </style>
 </defs>
 <g id="Layer_x0020_1">
  <metadata id="CorelCorpID_0Corel-Layer"/>
  <g id="_1481263542400">
   <rect class="fil0" x="13.08" y="13.08" width="828.8" height="821.08" rx="29.52" ry="29.52"/>
   <path class="fil1" d="M585.76 530.94c2.17,-3.67 6.9,-4.88 10.56,-2.72 3.67,2.17 4.88,6.9 2.72,10.56l-20.18 34.15 36.68 -9.17c4.13,-1.03 8.32,1.48 9.36,5.61 0.48,1.93 0.19,3.86 -0.67,5.49l0.01 0 -38.66 72.77c-2,3.77 -6.68,5.2 -10.44,3.2 -3.77,-2 -5.2,-6.68 -3.2,-10.44l30.52 -57.46 -37.75 9.44 -0 -0c-1.9,0.47 -3.98,0.23 -5.79,-0.84 -3.67,-2.17 -4.88,-6.9 -2.72,-10.56l29.56 -50.03z"/>
   <path class="fil1" d="M556.88 629.98c-1.67,-3.92 0.16,-8.44 4.07,-10.11 3.92,-1.67 8.44,0.16 10.11,4.07l7.64 17.82 20.92 -5.23c4.13,-1.03 8.32,1.48 9.36,5.61 1.03,4.13 -1.48,8.32 -5.61,9.36l-27.29 6.82 -0 -0.01c-3.62,0.91 -7.46,-0.92 -8.96,-4.46l-10.23 -23.88z"/>
   <path class="fil1" d="M778.28 352.83c0,-5.69 4.61,-10.3 10.3,-10.3 5.69,0 10.3,4.61 10.3,10.3l0 394.33c0,10.8 -4.38,20.57 -11.46,27.65 -7.08,7.08 -16.85,11.46 -27.65,11.46l-664.63 0c-10.8,0 -20.57,-4.38 -27.65,-11.46 -7.08,-7.08 -11.46,-16.86 -11.46,-27.65l0 -652.68c0,-10.8 4.38,-20.57 11.46,-27.65 7.08,-7.08 16.86,-11.46 27.65,-11.46l540.16 0c5.69,0 10.3,4.61 10.3,10.3 0,5.69 -4.61,10.3 -10.3,10.3l-540.16 0c-5.11,0 -9.74,2.07 -13.09,5.42 -3.35,3.35 -5.42,7.98 -5.42,13.09l0 652.68c0,5.11 2.07,9.74 5.42,13.09 3.35,3.35 7.98,5.42 13.09,5.42l664.63 0c5.11,0 9.74,-2.07 13.09,-5.42 3.35,-3.35 5.42,-7.98 5.42,-13.09l0 -394.33z"/>
   <path class="fil1" d="M76.62 488.82c0,5.69 -4.61,10.3 -10.3,10.3 -5.69,0 -10.3,-4.61 -10.3,-10.3l0 -394.33c0,-10.8 4.38,-20.57 11.46,-27.65 7.08,-7.08 16.85,-11.46 27.65,-11.46l664.63 0c10.8,0 20.57,4.38 27.65,11.46 7.08,7.08 11.46,16.86 11.46,27.65l0 652.68c0,10.8 -4.38,20.57 -11.46,27.65 -7.08,7.08 -16.86,11.46 -27.65,11.46l-540.16 0c-5.69,0 -10.3,-4.61 -10.3,-10.3 0,-5.69 4.61,-10.3 10.3,-10.3l540.16 0c5.11,0 9.74,-2.07 13.09,-5.42 3.35,-3.35 5.42,-7.98 5.42,-13.09l0 -652.68c0,-5.11 -2.07,-9.74 -5.42,-13.09 -3.35,-3.35 -7.98,-5.42 -13.09,-5.42l-664.63 0c-5.11,0 -9.74,2.07 -13.09,5.42 -3.35,3.35 -5.42,7.98 -5.42,13.09l0 394.33z"/>
   <path class="fil1" d="M834.37 400.14c0,-5.69 4.61,-10.3 10.3,-10.3 5.69,0 10.3,4.61 10.3,10.3l0 402.44c0,12.33 -5,23.49 -13.08,31.58 -8.08,8.08 -19.25,13.08 -31.57,13.08l-765.65 0c-12.33,0 -23.49,-5 -31.58,-13.08 -8.08,-8.08 -13.08,-19.25 -13.08,-31.58l0 -757.93c0,-12.33 5,-23.49 13.08,-31.57 8.08,-8.08 19.25,-13.08 31.58,-13.08l765.65 0c12.33,0 23.49,5 31.57,13.08 8.08,8.08 13.08,19.25 13.08,31.57 0,5.69 -4.61,10.3 -10.3,10.3 -5.69,0 -10.3,-4.61 -10.3,-10.3 0,-6.64 -2.69,-12.66 -7.05,-17.01 -4.35,-4.35 -10.37,-7.05 -17.01,-7.05l-765.65 0c-6.64,0 -12.66,2.69 -17.01,7.05 -4.35,4.35 -7.05,10.37 -7.05,17.01l0 757.93c0,6.64 2.69,12.66 7.05,17.01 4.35,4.35 10.37,7.05 17.01,7.05l765.65 0c6.64,0 12.66,-2.69 17.01,-7.05 4.35,-4.35 7.05,-10.37 7.05,-17.01l0 -402.44z"/>
   <path class="fil1" d="M20.59 447.1c0,5.69 -4.61,10.3 -10.3,10.3 -5.69,0 -10.3,-4.61 -10.3,-10.3l0 -402.44c0,-12.33 5,-23.49 13.08,-31.58 8.08,-8.08 19.25,-13.08 31.57,-13.08l765.65 0c12.33,0 23.49,5 31.58,13.08 8.08,8.08 13.08,19.25 13.08,31.58l0 757.93c0,12.33 -5,23.49 -13.08,31.57 -8.08,8.08 -19.25,13.08 -31.58,13.08l-765.65 0c-12.33,0 -23.49,-5 -31.57,-13.08 -8.08,-8.08 -13.08,-19.25 -13.08,-31.57 0,-5.69 4.61,-10.3 10.3,-10.3 5.69,0 10.3,4.61 10.3,10.3 0,6.64 2.69,12.66 7.05,17.01 4.35,4.35 10.37,7.05 17.01,7.05l765.65 0c6.64,0 12.66,-2.69 17.01,-7.05 4.35,-4.35 7.05,-10.37 7.05,-17.01l0 -757.93c0,-6.64 -2.69,-12.66 -7.05,-17.01 -4.35,-4.35 -10.37,-7.05 -17.01,-7.05l-765.65 0c-6.64,0 -12.66,2.69 -17.01,7.05 -4.35,4.35 -7.05,10.37 -7.05,17.01l0 402.44z"/>
   <polygon class="fil2" points="495.34,663.59 601.6,482.61 718.05,663.59 "/>
   <path class="fil1" d="M448.36 679.38l136.53 -216.97c2.27,-3.6 7.02,-4.68 10.62,-2.41 1.05,0.66 1.88,1.53 2.49,2.53l136.77 217.36c2.27,3.6 1.19,8.36 -2.41,10.62 -1.28,0.8 -2.7,1.19 -4.1,1.19l0 0.02 -273.68 0c-4.27,0 -7.73,-3.46 -7.73,-7.73 0,-1.73 0.57,-3.32 1.52,-4.61zm143.04 -198.4l-122.88 195.28 245.76 0 -122.88 -195.28z"/>
   <path class="fil1" d="M135.34 204.97c-4.98,0 -9.01,-4.7 -9.01,-10.5 0,-5.8 4.03,-10.5 9.01,-10.5l154.4 0c4.98,0 9.01,4.7 9.01,10.5 0,5.8 -4.03,10.5 -9.01,10.5l-154.4 0z"/>
   <path class="fil1" d="M135.34 271.29c-4.98,0 -9.01,-4.7 -9.01,-10.5 0,-5.8 4.03,-10.5 9.01,-10.5l154.4 0c4.98,0 9.01,4.7 9.01,10.5 0,5.8 -4.03,10.5 -9.01,10.5l-154.4 0z"/>
   <path class="fil1" d="M135.34 337.61c-4.98,0 -9.01,-4.7 -9.01,-10.5 0,-5.8 4.03,-10.5 9.01,-10.5l154.4 0c4.98,0 9.01,4.7 9.01,10.5 0,5.8 -4.03,10.5 -9.01,10.5l-154.4 0z"/>
   <path class="fil1" d="M135.34 403.93c-4.98,0 -9.01,-4.7 -9.01,-10.5 0,-5.8 4.03,-10.5 9.01,-10.5l154.4 0c4.98,0 9.01,4.7 9.01,10.5 0,5.8 -4.03,10.5 -9.01,10.5l-154.4 0z"/>
   <path class="fil1" d="M135.34 470.25c-4.98,0 -9.01,-4.7 -9.01,-10.5 0,-5.8 4.03,-10.5 9.01,-10.5l154.4 0c4.98,0 9.01,4.7 9.01,10.5 0,5.8 -4.03,10.5 -9.01,10.5l-154.4 0z"/>
   <path class="fil1" d="M365.05 204.97c-4.98,0 -9.01,-4.7 -9.01,-10.5 0,-5.8 4.03,-10.5 9.01,-10.5l154.4 0c4.98,0 9.01,4.7 9.01,10.5 0,5.8 -4.03,10.5 -9.01,10.5l-154.4 0z"/>
   <path class="fil1" d="M365.05 271.29c-4.98,0 -9.01,-4.7 -9.01,-10.5 0,-5.8 4.03,-10.5 9.01,-10.5l154.4 0c4.98,0 9.01,4.7 9.01,10.5 0,5.8 -4.03,10.5 -9.01,10.5l-154.4 0z"/>
   <path class="fil1" d="M365.05 337.61c-4.98,0 -9.01,-4.7 -9.01,-10.5 0,-5.8 4.03,-10.5 9.01,-10.5l154.4 0c4.98,0 9.01,4.7 9.01,10.5 0,5.8 -4.03,10.5 -9.01,10.5l-154.4 0z"/>
   <path class="fil1" d="M365.05 403.93c-4.98,0 -9.01,-4.7 -9.01,-10.5 0,-5.8 4.03,-10.5 9.01,-10.5l154.4 0c4.98,0 9.01,4.7 9.01,10.5 0,5.8 -4.03,10.5 -9.01,10.5l-154.4 0z"/>
   <path class="fil1" d="M365.05 470.25c-4.98,0 -9.01,-4.7 -9.01,-10.5 0,-5.8 4.03,-10.5 9.01,-10.5l154.4 0c4.98,0 9.01,4.7 9.01,10.5 0,5.8 -4.03,10.5 -9.01,10.5l-154.4 0z"/>
   <g>
    <path class="fil1" d="M590.9 552.66c1.67,-2.83 5.32,-3.77 8.15,-2.1 2.83,1.67 3.77,5.32 2.1,8.15l-15.57 26.35 28.31 -7.08c3.19,-0.8 6.42,1.14 7.22,4.33 0.37,1.49 0.15,2.98 -0.52,4.24l0.01 0 -29.83 56.16c-1.54,2.91 -5.15,4.01 -8.06,2.47 -2.91,-1.54 -4.01,-5.15 -2.47,-8.06l23.56 -44.34 -29.13 7.28 -0 -0c-1.46,0.37 -3.07,0.18 -4.47,-0.65 -2.83,-1.67 -3.77,-5.32 -2.1,-8.15l22.81 -38.61z"/>
    <path class="fil1" d="M568.62 629.09c-1.29,-3.02 0.12,-6.52 3.14,-7.8 3.02,-1.29 6.52,0.12 7.8,3.14l5.89 13.75 16.15 -4.04c3.19,-0.8 6.42,1.14 7.22,4.33 0.8,3.19 -1.14,6.42 -4.33,7.22l-21.06 5.26 -0 -0c-2.79,0.7 -5.75,-0.71 -6.92,-3.44l-7.9 -18.43z"/>
   </g>
  </g>
 </g>
</svg>
