<?xml version="1.0" encoding="UTF-8"?>
<!DOCTYPE svg PUBLIC "-//W3C//DTD SVG 1.1//EN" "http://www.w3.org/Graphics/SVG/1.1/DTD/svg11.dtd">
<!-- Creator: CorelDRAW -->
<svg xmlns="http://www.w3.org/2000/svg" xml:space="preserve" width="8.29583in" height="6.42205in" version="1.1" style="shape-rendering:geometricPrecision; text-rendering:geometricPrecision; image-rendering:optimizeQuality; fill-rule:evenodd; clip-rule:evenodd"
viewBox="0 0 2107.02 1631.1"
 xmlns:xlink="http://www.w3.org/1999/xlink"
 xmlns:xodm="http://www.corel.com/coreldraw/odm/2003">
 <defs>
  <style type="text/css">
   <![CDATA[
    .fil0 {fill:white}
    .fil1 {fill:#038F8F;fill-rule:nonzero}
    .fil2 {fill:#ADF5FF;fill-rule:nonzero}
   ]]>
  </style>
 </defs>
 <g id="Layer_x0020_1">
  <metadata id="CorelCorpID_0Corel-Layer"/>
  <g id="_1482240586848">
   <path class="fil0" d="M375.8 22.57l1315 0 0 622.17 391.79 0 0 961.94 -202.28 0 -70.6 -281.39 -1514.67 1.41 -68.54 279.98 -204.16 0 0 -732.94c0,-125.95 103.05,-228.99 228.99,-228.99l-8.49 0 0 -489.21c0,-73.13 59.83,-132.96 132.96,-132.96z"/>
   <path class="fil1" d="M1866.28 618.06c13.49,0 24.42,10.94 24.42,24.42 0,13.49 -10.94,24.42 -24.42,24.42l-1625.55 0c-13.49,0 -24.43,-10.94 -24.43,-24.42l0 -489.44 0.1 0c0,-42.32 17.1,-80.58 44.74,-108.21 27.7,-27.7 65.96,-44.83 108.21,-44.83l885.72 0c13.49,0 24.42,10.94 24.42,24.42 0,13.49 -10.94,24.42 -24.42,24.42l-885.72 0c-28.77,0 -54.82,11.67 -73.68,30.52 -18.92,18.92 -30.62,44.97 -30.62,73.68l0.1 0 0 465.02 1601.13 0z"/>
   <path class="fil1" d="M1845.79 618.06c13.49,0 24.42,10.94 24.42,24.42 0,13.49 -10.94,24.42 -24.42,24.42l-1584.57 0c-58.63,0 -111.73,23.78 -150.16,62.21 -38.43,38.43 -62.21,91.53 -62.21,150.16l-0.1 0 -0 702.97 163.14 0 54.44 -264.76c2.42,-11.84 13.06,-19.91 24.75,-19.46l1525.74 -0c11.77,0 21.59,8.36 23.84,19.46l0.01 -0 54.44 264.76 163.04 0 0 -514.71c0,-13.49 10.94,-24.42 24.42,-24.42 13.49,0 24.43,10.94 24.43,24.42l0 539.14c0,13.49 -10.94,24.43 -24.43,24.43l-207.3 0 0 -0.08c-11.34,0.01 -21.5,-7.94 -23.85,-19.48l-54.46 -264.86 -1486.94 0 -54.07 262.93c-1.45,12.1 -11.75,21.48 -24.25,21.48l-207.3 0 0 -0.1c-13.44,0 -24.33,-10.89 -24.33,-24.33l0 -727.39 -0.1 0c0,-72.12 29.25,-137.43 76.52,-184.7 47.27,-47.28 112.58,-76.52 184.7,-76.52l1584.57 0z"/>
   <path class="fil1" d="M24.42 1149.01c-13.49,0 -24.42,-10.94 -24.42,-24.43 0,-13.49 10.94,-24.42 24.42,-24.42l2039.64 0c13.49,0 24.42,10.94 24.42,24.42 0,13.49 -10.94,24.43 -24.42,24.43l-2039.64 0z"/>
   <path class="fil2" d="M521.41 275.58l216.33 0c58.11,0 105.24,47.13 105.24,105.24l-0 257.27 -426.8 0 0 -257.27c0,-58.11 47.13,-105.24 105.24,-105.24l-0 0z"/>
   <path class="fil2" d="M1246.44 275.58l216.36 0c58.11,0 105.24,47.13 105.24,105.24l0 257.27 -426.85 0 0 -257.27c0,0 0,0 0,0 0,-58.11 47.13,-105.24 105.24,-105.24 0,0 0.03,0 0.03,0l-0 0z"/>
   <path class="fil1" d="M521.41 251.15l339.24 0 0 0.1c35.78,0.06 68.14,14.6 91.54,38.05 23.42,23.47 37.91,55.83 37.91,91.52l0 257.27c0,13.49 -10.94,24.42 -24.43,24.42l-549.5 0c-13.49,0 -24.42,-10.94 -24.42,-24.42l0 -257.27c0,-35.8 14.52,-68.21 37.98,-91.68 23.47,-23.47 55.88,-37.98 91.68,-37.98zm339.24 48.75l0 0.1 -339.24 0c-22.31,0 -42.52,9.05 -57.14,23.67 -14.62,14.62 -23.67,34.83 -23.67,57.14l0 232.85 500.65 0 0 -232.85c0,-22.35 -9.02,-42.56 -23.6,-57.17 -14.6,-14.63 -34.75,-23.7 -57,-23.74z"/>
   <path class="fil1" d="M1246.44 251.15l339.12 0c35.8,0 68.21,14.52 91.68,37.98 23.47,23.47 37.98,55.88 37.98,91.68l0 257.27c0,13.49 -10.94,24.42 -24.42,24.42l-549.62 0c-13.49,0 -24.42,-10.94 -24.42,-24.42l0 -257.27c0,-35.8 14.52,-68.21 37.98,-91.68 23.47,-23.46 55.88,-37.98 91.68,-37.98l0.02 0zm339.12 48.85l-339.14 0c-22.31,0 -42.52,9.05 -57.14,23.67 -14.62,14.62 -23.67,34.83 -23.67,57.14l0 232.85 500.76 0 0 -232.85c0,-22.31 -9.05,-42.52 -23.67,-57.14 -14.62,-14.62 -34.83,-23.67 -57.14,-23.67z"/>
   <path class="fil1" d="M1743.07 958.63c13.49,0 24.42,10.94 24.42,24.42 0,13.49 -10.94,24.42 -24.42,24.42l-1549.09 0c-13.49,0 -24.42,-10.94 -24.42,-24.42l0 -117.65c0,-28.54 13.97,-54.05 36.56,-72.22 21.1,-16.99 49.91,-27.49 81.41,-27.49l1252.79 0c13.49,0 24.42,10.94 24.42,24.43 0,13.49 -10.94,24.42 -24.42,24.42l-1252.79 0c-20.16,0 -38.13,6.35 -50.88,16.62 -11.27,9.07 -18.24,21.2 -18.24,34.25l0 93.23 1524.66 0z"/>
   <path class="fil1" d="M193.98 958.63c-13.49,0 -24.42,10.94 -24.42,24.42 0,13.49 10.94,24.42 24.42,24.42l1549.09 0c13.49,0 24.42,-10.94 24.42,-24.42l0 -117.65c0,-28.54 -13.97,-54.05 -36.56,-72.22 -21.1,-16.99 -49.91,-27.49 -81.41,-27.49l-1252.79 0c-13.49,0 -24.42,10.94 -24.42,24.43 0,13.49 10.94,24.42 24.42,24.42l1252.79 0c20.16,0 38.13,6.35 50.88,16.62 11.27,9.07 18.24,21.2 18.24,34.25l0 93.23 -1524.66 0z"/>
   <path class="fil1" d="M261.23 618.06c-13.49,0 -24.42,10.94 -24.42,24.42 0,13.49 10.94,24.42 24.42,24.42l1584.57 0c58.63,0 111.73,23.78 150.16,62.21 38.43,38.43 62.21,91.53 62.21,150.16l0.1 0 0 702.97 -163.14 0 -54.44 -264.76c-2.42,-11.84 -13.06,-19.91 -24.75,-19.46l-1525.74 -0c-11.77,0 -21.59,8.36 -23.84,19.46l-0.01 -0 -54.44 264.76 -163.04 0 0 -514.71c0,-13.49 -10.94,-24.42 -24.42,-24.42 -13.49,0 -24.43,10.94 -24.43,24.42l0 539.14c0,13.49 10.94,24.43 24.43,24.43l207.3 0 0 -0.08c11.34,0.01 21.5,-7.94 23.85,-19.48l54.46 -264.86 1486.94 0 54.07 262.93c1.45,12.1 11.75,21.48 24.25,21.48l207.3 0 0 -0.1c13.44,0 24.33,-10.89 24.33,-24.33l-0 -727.39 0.1 0c0,-72.12 -29.25,-137.43 -76.52,-184.7 -47.27,-47.28 -112.58,-76.52 -184.7,-76.52l-1584.57 0z"/>
   <path class="fil1" d="M240.73 618.06c-13.49,0 -24.42,10.94 -24.42,24.42 0,13.49 10.94,24.42 24.42,24.42l1625.55 0c13.49,0 24.43,-10.94 24.43,-24.42l0 -489.44 -0.1 0c-0,-42.32 -17.1,-80.58 -44.74,-108.21 -27.7,-27.7 -65.96,-44.83 -108.21,-44.83l-885.72 0c-13.49,0 -24.42,10.94 -24.42,24.42 0,13.49 10.94,24.42 24.42,24.42l885.72 0c28.77,0 54.82,11.67 73.68,30.52 18.92,18.92 30.62,44.97 30.62,73.68l-0.1 0 0 465.02 -1601.13 0z"/>
  </g>
 </g>
</svg>
