<?xml version="1.0" encoding="UTF-8"?>
<!DOCTYPE svg PUBLIC "-//W3C//DTD SVG 1.1//EN" "http://www.w3.org/Graphics/SVG/1.1/DTD/svg11.dtd">
<!-- Creator: CorelDRAW -->
<svg xmlns="http://www.w3.org/2000/svg" xml:space="preserve" width="9.3239in" height="7.6894in" version="1.1" style="shape-rendering:geometricPrecision; text-rendering:geometricPrecision; image-rendering:optimizeQuality; fill-rule:evenodd; clip-rule:evenodd"
viewBox="0 0 619.05 510.53"
 xmlns:xlink="http://www.w3.org/1999/xlink"
 xmlns:xodm="http://www.corel.com/coreldraw/odm/2003">
 <defs>
  <style type="text/css">
   <![CDATA[
    .fil0 {fill:white}
    .fil1 {fill:#038F8F;fill-rule:nonzero}
    .fil2 {fill:#ADF5FF;fill-rule:nonzero}
   ]]>
  </style>
 </defs>
 <g id="Layer_x0020_1">
  <metadata id="CorelCorpID_0Corel-Layer"/>
  <g id="_1481271692832">
   <path class="fil0" d="M572.95 5.08l-442.93 0 0 246.05 410.71 0c37.27,0 67.75,-30.49 67.75,-67.75l0 -142.76c0,-19.55 -15.99,-35.54 -35.54,-35.54z"/>
   <path class="fil0" d="M42 5.08l442.93 0 0 246.05 -410.71 0c-37.27,0 -67.75,-30.49 -67.75,-67.75l0 -142.76c0,-19.55 15.99,-35.54 35.54,-35.54z"/>
   <path class="fil1" d="M340.74 12.78c-3.53,0 -6.38,-2.86 -6.38,-6.38 0,-3.53 2.86,-6.38 6.38,-6.38l232.21 0c12.73,0 24.25,5.16 32.59,13.5 8.34,8.34 13.5,19.87 13.5,32.59l0 125.63c0,3.53 -2.86,6.38 -6.38,6.38l-606.28 0c-3.53,0 -6.38,-2.86 -6.38,-6.38l0 -125.64c0,-12.73 5.16,-24.25 13.5,-32.59 8.34,-8.34 19.87,-13.5 32.59,-13.5l261.96 0c3.53,0 6.38,2.86 6.38,6.38 0,3.53 -2.86,6.39 -6.38,6.39l-261.96 0c-9.2,0 -17.53,3.73 -23.56,9.76 -6.03,6.03 -9.76,14.36 -9.76,23.56l0 119.26 593.51 0 0 -119.25c0,-9.2 -3.73,-17.53 -9.76,-23.56 -6.03,-6.03 -14.36,-9.76 -23.56,-9.76l-232.21 0z"/>
   <path class="fil1" d="M389.58 244.82c3.53,0 6.38,2.86 6.38,6.39 0,3.53 -2.86,6.38 -6.38,6.38l-318.71 0c-16.67,0 -35.48,-9.6 -49.45,-24.97 -12.41,-13.66 -21.16,-31.97 -21.32,-52.22l-0.07 -9.25c-0.03,-3.51 2.8,-6.38 6.31,-6.41l0.05 0 0 -0.03 606.28 0c3.53,0 6.38,2.86 6.38,6.38 0,3.53 -2.86,6.38 -6.38,6.38l-599.87 0 0.02 2.81c0.13,16.83 7.53,32.19 18.03,43.74 11.62,12.79 26.85,20.78 40.02,20.78l318.71 0z"/>
   <g>
    <path class="fil2" d="M58.62 164.68l0 -10.74c0.01,-10.34 8.4,-18.73 18.74,-18.73l464.32 0c10.35,0 18.75,8.4 18.75,18.75l0 10.11 -501.81 0.61zm0 0l0 0 0 0z"/>
   </g>
   <path class="fil1" d="M289.46 117.24c-3.53,0 -6.38,-2.86 -6.38,-6.39 0,-3.53 2.86,-6.38 6.38,-6.38l40.13 0c3.53,0 6.38,2.86 6.38,6.38 0,3.53 -2.86,6.39 -6.38,6.39l-40.13 0z"/>
   <g>
    <path class="fil2" d="M560.44 178.2l0 5.17c0,11.27 -8.39,20.41 -18.75,20.41l-464.33 0c-10.37,0 -18.75,-9.15 -18.75,-20.41l0 -5.88 501.83 0.71zm0 0l0 0 0 0z"/>
   </g>
   <path class="fil1" d="M355.66 216.62c3.53,0 6.38,2.86 6.38,6.38 0,3.53 -2.86,6.38 -6.38,6.38l-278.31 0c-7.64,0 -14.26,-4.92 -18.8,-12.87 -3.92,-6.88 -6.34,-16.23 -6.34,-26.42l0 -17.69c0,-3.53 2.86,-6.38 6.39,-6.38 3.53,0 6.38,2.86 6.38,6.38l0 17.69c0,7.99 1.77,15.1 4.64,20.13 2.25,3.95 5,6.39 7.72,6.39l278.31 0z"/>
   <path class="fil1" d="M59.13 203.44c-3.53,0 -6.38,-2.86 -6.38,-6.38 0,-3.53 2.86,-6.38 6.38,-6.38l277.51 0c3.53,0 6.38,2.86 6.38,6.38 0,3.53 -2.86,6.38 -6.38,6.38l-277.51 0z"/>
   <path class="fil1" d="M341.06 216.62c3.53,0 6.38,2.86 6.38,6.38 0,3.53 -2.86,6.38 -6.38,6.38l-263.71 0c-7.64,0 -14.26,-4.92 -18.8,-12.87 -3.92,-6.88 -6.34,-16.23 -6.34,-26.42l0 -17.69c0,-3.53 2.86,-6.38 6.39,-6.38 3.53,0 6.38,2.86 6.38,6.38l0 17.69c0,7.99 1.77,15.1 4.64,20.13 2.25,3.95 5,6.39 7.72,6.39l263.71 0z"/>
   <path class="fil1" d="M138.09 295.85c-3.22,-1.39 -4.71,-5.13 -3.32,-8.35 1.39,-3.22 5.13,-4.71 8.35,-3.32 0.08,0.03 27.66,11.69 27.66,41.02 0,29.2 -27.36,41.92 -27.44,41.95 -3.18,1.52 -6.99,0.16 -8.5,-3.02 -1.52,-3.18 -0.16,-6.99 3.02,-8.5 0.06,-0.03 20.15,-9.37 20.15,-30.43 0,-20.93 -19.87,-29.32 -19.93,-29.35z"/>
   <path class="fil1" d="M143.13 426.93c3.22,1.39 4.71,5.13 3.32,8.36 -1.39,3.22 -5.13,4.71 -8.35,3.32 -0.08,-0.03 -27.66,-11.69 -27.66,-41.02 0,-29.2 27.36,-41.92 27.44,-41.95 3.18,-1.51 6.99,-0.16 8.5,3.02 1.52,3.18 0.16,6.99 -3.02,8.5 -0.06,0.03 -20.15,9.37 -20.15,30.43 0,20.93 19.87,29.32 19.93,29.35z"/>
   <path class="fil1" d="M138.09 438.61c-3.22,-1.39 -4.71,-5.13 -3.32,-8.36 1.39,-3.22 5.13,-4.71 8.35,-3.32 0.08,0.03 27.66,11.69 27.66,41.02 0,29.2 -27.36,41.92 -27.44,41.95 -3.18,1.51 -6.99,0.16 -8.5,-3.02 -1.52,-3.18 -0.16,-6.99 3.02,-8.5 0.06,-0.03 20.15,-9.37 20.15,-30.43 0,-20.93 -19.87,-29.32 -19.93,-29.35z"/>
   <path class="fil1" d="M246 295.85c-3.22,-1.39 -4.71,-5.13 -3.32,-8.35 1.39,-3.22 5.13,-4.71 8.36,-3.32 0.08,0.03 27.66,11.69 27.66,41.02 0,29.2 -27.36,41.92 -27.44,41.95 -3.18,1.52 -6.99,0.16 -8.5,-3.02 -1.52,-3.18 -0.16,-6.99 3.02,-8.5 0.06,-0.03 20.15,-9.37 20.15,-30.43 0,-20.93 -19.87,-29.32 -19.93,-29.35z"/>
   <path class="fil1" d="M251.04 426.93c3.22,1.39 4.71,5.13 3.32,8.36 -1.39,3.22 -5.13,4.71 -8.36,3.32 -0.08,-0.03 -27.66,-11.69 -27.66,-41.02 0,-29.2 27.36,-41.92 27.44,-41.95 3.18,-1.51 6.99,-0.16 8.5,3.02 1.52,3.18 0.16,6.99 -3.02,8.5 -0.06,0.03 -20.15,9.37 -20.15,30.43 0,20.93 19.87,29.32 19.93,29.35z"/>
   <path class="fil1" d="M246 438.61c-3.22,-1.39 -4.71,-5.13 -3.32,-8.36 1.39,-3.22 5.13,-4.71 8.36,-3.32 0.08,0.03 27.66,11.69 27.66,41.02 0,29.2 -27.36,41.92 -27.44,41.95 -3.18,1.51 -6.99,0.16 -8.5,-3.02 -1.52,-3.18 -0.16,-6.99 3.02,-8.5 0.06,-0.03 20.15,-9.37 20.15,-30.43 0,-20.93 -19.87,-29.32 -19.93,-29.35z"/>
   <path class="fil1" d="M353.92 295.85c-3.22,-1.39 -4.71,-5.13 -3.32,-8.35 1.39,-3.22 5.13,-4.71 8.35,-3.32 0.08,0.03 27.66,11.69 27.66,41.02 0,29.2 -27.36,41.92 -27.44,41.95 -3.18,1.52 -6.99,0.16 -8.5,-3.02 -1.52,-3.18 -0.16,-6.99 3.02,-8.5 0.06,-0.03 20.15,-9.37 20.15,-30.43 0,-20.93 -19.87,-29.32 -19.93,-29.35z"/>
   <path class="fil1" d="M358.96 426.93c3.22,1.39 4.71,5.13 3.32,8.36 -1.39,3.22 -5.13,4.71 -8.35,3.32 -0.08,-0.03 -27.66,-11.69 -27.66,-41.02 0,-29.2 27.36,-41.92 27.44,-41.95 3.18,-1.51 6.99,-0.16 8.5,3.02 1.52,3.18 0.16,6.99 -3.02,8.5 -0.06,0.03 -20.15,9.37 -20.15,30.43 0,20.93 19.87,29.32 19.93,29.35z"/>
   <path class="fil1" d="M353.92 438.61c-3.22,-1.39 -4.71,-5.13 -3.32,-8.36 1.39,-3.22 5.13,-4.71 8.35,-3.32 0.08,0.03 27.66,11.69 27.66,41.02 0,29.2 -27.36,41.92 -27.44,41.95 -3.18,1.51 -6.99,0.16 -8.5,-3.02 -1.52,-3.18 -0.16,-6.99 3.02,-8.5 0.06,-0.03 20.15,-9.37 20.15,-30.43 0,-20.93 -19.87,-29.32 -19.93,-29.35z"/>
   <path class="fil1" d="M461.84 295.85c-3.22,-1.39 -4.71,-5.13 -3.32,-8.35 1.39,-3.22 5.13,-4.71 8.35,-3.32 0.08,0.03 27.66,11.69 27.66,41.02 0,29.2 -27.36,41.92 -27.43,41.95 -3.18,1.52 -6.99,0.16 -8.5,-3.02 -1.52,-3.18 -0.16,-6.99 3.02,-8.5 0.06,-0.03 20.15,-9.37 20.15,-30.43 0,-20.93 -19.87,-29.32 -19.93,-29.35z"/>
   <path class="fil1" d="M466.88 426.93c3.22,1.39 4.71,5.13 3.32,8.36 -1.39,3.22 -5.13,4.71 -8.35,3.32 -0.08,-0.03 -27.66,-11.69 -27.66,-41.02 0,-29.2 27.36,-41.92 27.44,-41.95 3.18,-1.51 6.99,-0.16 8.5,3.02 1.51,3.18 0.16,6.99 -3.02,8.5 -0.06,0.03 -20.15,9.37 -20.15,30.43 0,20.93 19.87,29.32 19.93,29.35z"/>
   <path class="fil1" d="M461.84 438.61c-3.22,-1.39 -4.71,-5.13 -3.32,-8.36 1.39,-3.22 5.13,-4.71 8.35,-3.32 0.08,0.03 27.66,11.69 27.66,41.02 0,29.2 -27.36,41.92 -27.43,41.95 -3.18,1.51 -6.99,0.16 -8.5,-3.02 -1.52,-3.18 -0.16,-6.99 3.02,-8.5 0.06,-0.03 20.15,-9.37 20.15,-30.43 0,-20.93 -19.87,-29.32 -19.93,-29.35z"/>
   <path class="fil1" d="M276.28 216.62c-3.53,0 -6.38,2.86 -6.38,6.38 0,3.53 2.86,6.38 6.38,6.38l263.71 0c7.64,0 14.26,-4.92 18.8,-12.87 3.92,-6.88 6.34,-16.23 6.34,-26.42l0 -17.69c0,-3.53 -2.86,-6.38 -6.39,-6.38 -3.53,0 -6.38,2.86 -6.38,6.38l0 17.69c0,7.99 -1.77,15.1 -4.64,20.13 -2.25,3.95 -5,6.39 -7.72,6.39l-263.71 0z"/>
   <path class="fil1" d="M229.5 244.82c-3.53,0 -6.38,2.86 -6.38,6.39 0,3.53 2.86,6.38 6.38,6.38l318.71 0c16.67,0 35.48,-9.6 49.45,-24.97 12.41,-13.66 21.16,-31.97 21.32,-52.22l0.07 -9.25c0.03,-3.51 -2.8,-6.38 -6.31,-6.41l-0.05 0 0 -0.03 -606.28 0c-3.53,0 -6.38,2.86 -6.38,6.38 0,3.53 2.86,6.38 6.38,6.38l599.87 0 -0.02 2.81c-0.13,16.83 -7.53,32.19 -18.03,43.74 -11.62,12.79 -26.85,20.78 -40.02,20.78l-318.71 0z"/>
  </g>
 </g>
</svg>
