<?xml version="1.0" encoding="UTF-8"?>
<!DOCTYPE svg PUBLIC "-//W3C//DTD SVG 1.1//EN" "http://www.w3.org/Graphics/SVG/1.1/DTD/svg11.dtd">
<!-- Creator: CorelDRAW -->
<svg xmlns="http://www.w3.org/2000/svg" xml:space="preserve" width="9.84953in" height="6.85588in" version="1.1" style="shape-rendering:geometricPrecision; text-rendering:geometricPrecision; image-rendering:optimizeQuality; fill-rule:evenodd; clip-rule:evenodd"
viewBox="0 0 11333.17 7888.59"
 xmlns:xlink="http://www.w3.org/1999/xlink"
 xmlns:xodm="http://www.corel.com/coreldraw/odm/2003">
 <defs>
  <style type="text/css">
   <![CDATA[
    .fil0 {fill:white}
    .fil2 {fill:#038F8F;fill-rule:nonzero}
    .fil1 {fill:#ADF5FF;fill-rule:nonzero}
    .fil3 {fill:#ADF5FF;fill-rule:nonzero}
   ]]>
  </style>
 </defs>
 <g id="Layer_x0020_1">
  <metadata id="CorelCorpID_0Corel-Layer"/>
  <g id="_1482231170704">
   <rect class="fil0" x="97.46" y="97.46" width="11138.24" height="6470.95" rx="256.41" ry="256.41"/>
   <path class="fil1" d="M8853.76 7440.64l-2416.12 -347.12c-217.51,-30.38 -379.79,-216.07 -380.65,-435.73l0 -102.24 -758.74 0 0 182.28c-0.63,173.13 -128.67,319.53 -300.17,343.22l-2597.03 371.12c-102.63,13.89 -179.35,101.33 -179.76,204.9l0 120.85 3337.59 -404.54c35.38,-4.19 71.35,-6.47 107.1,-6.47 35.75,0 71.73,2.28 107.15,6.52l3337.59 404.54 0 -42.29c-0.38,-148.62 -109.88,-274.35 -256.98,-295.06l-0 0z"/>
   <path class="fil2" d="M8838.2 7550l-2416.13 -347.13 -3.81 -0.62c-134.14,-19.78 -251.24,-86.91 -335.2,-183.02 -83.06,-95.08 -133.66,-218.72 -136.18,-353.04l-537.98 0 0 71.65 -0.43 0c-0.42,114.32 -42.78,219.68 -113.24,300.25 -70.46,80.57 -168.93,136.58 -281.58,152.26l0 0.06 -2597.03 371.13 -4.19 0.51c-22.65,3.85 -42.36,15.34 -56.61,31.57 -14.22,16.21 -23.12,37.01 -24.2,59.58l3214.29 -389.59c18.38,-2.17 38.6,-3.95 60.63,-5.28 22.38,-1.35 42.31,-2.06 59.46,-2.06 17.21,0 37.18,0.71 59.58,2.07 22.04,1.34 42.22,3.13 60.53,5.32l3193.54 387.08c-7.04,-13.63 -15.72,-26.36 -25.79,-37.93 -28.96,-33.24 -69.26,-56.35 -115.22,-62.82l-0.42 -0.06 -0.01 0.06zm-2385.01 -565.84l2416.13 347.13 -0.01 0.06c100.94,14.31 188.81,64.39 251.38,136.24 62.51,71.77 100,165.82 100.25,268.1l0.43 0 0 42.3 -0.1 0c-0.01,4.29 -0.25,8.61 -0.77,12.97 -7.16,60.63 -62.12,103.98 -122.75,96.82l-3337.6 -404.54c-17.5,-2.09 -33.43,-3.6 -47.56,-4.46 -12.97,-0.79 -28.47,-1.2 -46.61,-1.2 -18.12,0 -33.59,0.41 -46.49,1.19 -14.22,0.86 -30.18,2.35 -47.65,4.42l-3332.3 403.89c-5.94,0.99 -12.04,1.51 -18.27,1.51 -61.11,0 -110.65,-49.54 -110.65,-110.65l0 -120.86 0.44 0 -0 -0.43c0.31,-79.33 29.79,-152.41 78.77,-208.25 47.82,-54.5 114.11,-92.73 189.96,-104.59 1.88,-0.37 3.77,-0.68 5.68,-0.96l2597.04 -371.13 0.01 0.06 0.42 -0.06c58.65,-8.11 109.8,-37.12 146.3,-78.85 36.57,-41.82 58.56,-96.24 58.78,-155.02l-0.43 0 0 -182.3c0,-61.11 49.54,-110.65 110.65,-110.65l758.75 0c61.11,0 110.65,49.54 110.65,110.65l0 102.25 -0.43 0c0.32,82.06 30.91,157.94 81.83,216.21 50.3,57.58 120.49,97.83 200.92,109.75l3.24 0.41z"/>
   <path class="fil2" d="M221.3 6333.18c0,30.76 12.48,58.61 32.63,78.77 20.15,20.15 48,32.63 78.75,32.63 3555.94,0 7111.88,-0 10667.82,-0 30.75,0 58.6,-12.47 78.75,-32.63 20.15,-20.15 32.63,-48.01 32.63,-78.77l0 -6000.48c0,-30.76 -12.48,-58.61 -32.63,-78.77 -20.15,-20.15 -48,-32.63 -78.75,-32.63l-10667.79 0c-30.75,0 -58.61,12.47 -78.76,32.63 -20.16,20.15 -32.63,48.01 -32.63,78.76 0,2000.16 -0,4000.32 -0,6000.49zm-221.3 -6000.49c0,-91.85 37.25,-175.03 97.46,-235.23 60.2,-60.21 143.38,-97.46 235.23,-97.46l10667.79 0c91.84,0 175.01,37.25 235.22,97.46 60.2,60.21 97.45,143.39 97.45,235.24l0 6000.48c0,91.84 -37.25,175.03 -97.45,235.24 -60.21,60.21 -143.38,97.46 -235.22,97.46 -3555.94,0 -7111.88,0 -10667.82,0 -91.84,0 -175.01,-37.25 -235.22,-97.46 -60.2,-60.21 -97.45,-143.39 -97.45,-235.24 0,-2000.17 0,-4000.32 0,-6000.49z"/>
   <g>
    <path class="fil2" d="M10810.2 4926.5l0 1073.32 0 0.01 -0.04 2.84 0 0.01c-0.02,0.95 -0.06,1.89 -0.11,2.83l0 0.01 -0.18 2.81 0 0.01 -0.25 2.79 0 0.01 -0.32 2.77 0 0.01 -0.39 2.75 0 0.01 -0.46 2.73 0 0.01 -0.52 2.7 0 0.01 -0.58 2.68 0 0.01c-0.2,0.89 -0.43,1.78 -0.65,2.65l0 0.01 -0.72 2.63 0 0.01 -0.77 2.6 0 0.01c-0.27,0.87 -0.55,1.72 -0.84,2.57l0 0.01 -0.9 2.55 0 0c-0.31,0.85 -0.63,1.68 -0.96,2.52l0 0.01 -1.02 2.49 0 0.01 -1.08 2.46 0 0.01 -1.14 2.43 0 0.01 -1.19 2.39 0 0.01 -1.25 2.36 0 0.01 -1.3 2.32c-0.89,1.54 -1.81,3.08 -2.77,4.57l0 0c-1.44,2.24 -2.96,4.43 -4.55,6.56l0 0 -1.62 2.11 0 0 -1.67 2.07 0 0c-1.13,1.37 -2.29,2.7 -3.47,4.01l0 0 -1.81 1.94 0 0c-1.22,1.28 -2.48,2.53 -3.76,3.75l0 0c-1.92,1.83 -3.91,3.59 -5.96,5.28l0 0 -2.07 1.66 0 0 -2.11 1.61 0 0c-1.42,1.06 -2.86,2.08 -4.34,3.08l0 0c-0.73,0.5 -1.48,0.98 -2.23,1.46l0 0c-1.49,0.96 -3.02,1.88 -4.56,2.77l0 0 -2.33 1.3 0 0 -2.37 1.25 0 0c-0.79,0.41 -1.59,0.8 -2.4,1.19l0 0 -2.44 1.13 0 0 -2.46 1.07 0 0 -2.5 1.02 0 0 -2.53 0.96 0 0c-1.69,0.62 -3.41,1.2 -5.14,1.74l0 0 -2.61 0.77 0 0 -2.64 0.71 0 0c-1.77,0.45 -3.55,0.86 -5.35,1.23l0 0c-0.9,0.19 -1.81,0.35 -2.71,0.51l0 0 -2.74 0.45 0 0c-0.92,0.14 -1.83,0.26 -2.76,0.38l0 0c-0.92,0.12 -1.85,0.22 -2.78,0.31l0 0c-0.93,0.1 -1.87,0.17 -2.8,0.24l0 0 -2.82 0.17 0 0 -2.84 0.1 0 0 -2.85 0.03 0 0 -4753.99 0c-3.37,0 -6.69,-0.16 -9.98,-0.45l-5302.08 -0.01c-60.87,0 -110.22,-49.35 -110.22,-110.22l-0.43 0 0 -4324.68 0 -1073.32 0 -0.01 0.04 -2.84 0 -0.01c0.02,-0.95 0.06,-1.89 0.11,-2.83l0 -0.01 0.18 -2.81 0 -0.01 0.25 -2.79 0 -0.01 0.32 -2.77 0 -0.01 0.39 -2.75 0 -0.01 0.46 -2.73 0 -0.01 0.52 -2.7 0 -0.01 0.58 -2.68 0 -0.01c0.2,-0.89 0.43,-1.78 0.65,-2.65l0 -0.01 0.72 -2.63 0 -0.01 0.77 -2.6 0 -0.01c0.27,-0.87 0.55,-1.72 0.84,-2.57l0 -0.01 0.9 -2.55 0 -0 0.96 -2.52 0 -0.01 1.02 -2.49 0 -0.01 1.08 -2.46 0 -0.01 1.14 -2.43 0 -0.01 1.19 -2.39 0 -0.01 1.25 -2.36 0 -0.01 1.3 -2.32c0.89,-1.54 1.81,-3.07 2.77,-4.57l0 -0c1.44,-2.24 2.96,-4.43 4.55,-6.56l0 -0 1.62 -2.11 0 -0c0.55,-0.7 1.1,-1.39 1.67,-2.07l0 -0c1.13,-1.36 2.28,-2.7 3.47,-4.01l0 -0 1.81 -1.94 0 -0c1.22,-1.28 2.47,-2.53 3.76,-3.75l0 -0c1.92,-1.83 3.91,-3.59 5.96,-5.28l0 -0 2.07 -1.66 0 -0 2.11 -1.61 0 -0c1.42,-1.06 2.86,-2.08 4.34,-3.08l0 -0c0.73,-0.5 1.48,-0.98 2.23,-1.46l0 -0c1.49,-0.96 3.02,-1.88 4.56,-2.77l0 -0 2.33 -1.3 0 -0 2.37 -1.25 0 -0c0.79,-0.41 1.59,-0.8 2.4,-1.19l0 -0 2.44 -1.13 0 -0 2.46 -1.07 0 -0 2.5 -1.02 0 -0 2.53 -0.96 0 -0c1.69,-0.62 3.4,-1.2 5.14,-1.74l0 -0 2.61 -0.77 0 -0 2.64 -0.71 0 -0c1.77,-0.45 3.55,-0.86 5.35,-1.23l0 -0c0.9,-0.19 1.8,-0.35 2.71,-0.51l0 -0 2.74 -0.45 0 -0c0.92,-0.14 1.83,-0.26 2.76,-0.38l0 -0c0.92,-0.12 1.85,-0.22 2.78,-0.31l0 -0c0.93,-0.1 1.86,-0.17 2.8,-0.24l0 -0c0.94,-0.07 1.88,-0.13 2.82,-0.17l0 -0 2.84 -0.1 0 -0 2.85 -0.03 0 -0 4753.99 0c3.37,0 6.69,0.16 9.98,0.45l5302.08 0.01c60.87,0 110.22,49.35 110.22,110.22l0.43 0 0 4324.68zm-25.27 1143.71c-1.13,1.36 -2.28,2.7 -3.47,4.01l3.47 -4.01zm-5.29 5.96c-1.22,1.28 -2.47,2.53 -3.76,3.75l3.76 -3.75zm-13.89 12.33c-1.42,1.06 -2.86,2.08 -4.34,3.08l4.34 -3.08zm-6.56 4.55c-1.49,0.96 -3.02,1.88 -4.56,2.77l4.56 -2.77zm-21.59 10.72c-1.69,0.62 -3.41,1.2 -5.14,1.74l5.14 -1.74zm-10.39 3.23c-1.77,0.45 -3.55,0.86 -5.35,1.23l5.35 -1.23zm-5330.13 -5394.97c-3.16,0.27 -6.36,0.42 -9.59,0.42l-4643.34 0 0 962.67 0 4214.47 5191.83 0.01c3.16,-0.27 6.36,-0.42 9.59,-0.42l4643.34 0 0 -962.67 0 -4214.47 -5191.83 -0.01z"/>
   </g>
   <polygon class="fil3" points="1203.4,2294.8 8277.3,5515.34 1203.4,5496.2 "/>
   <polygon class="fil3" points="2429.48,1108.57 9696.45,4338.52 9696.45,3419.91 4414.21,1118.09 "/>
  </g>
 </g>
</svg>
