<?xml version="1.0" encoding="UTF-8"?>
<!DOCTYPE svg PUBLIC "-//W3C//DTD SVG 1.1//EN" "http://www.w3.org/Graphics/SVG/1.1/DTD/svg11.dtd">
<!-- Creator: CorelDRAW -->
<svg xmlns="http://www.w3.org/2000/svg" xml:space="preserve" width="8.06794in" height="8.68646in" version="1.1" style="shape-rendering:geometricPrecision; text-rendering:geometricPrecision; image-rendering:optimizeQuality; fill-rule:evenodd; clip-rule:evenodd"
viewBox="0 0 3490.19 3757.77"
 xmlns:xlink="http://www.w3.org/1999/xlink"
 xmlns:xodm="http://www.corel.com/coreldraw/odm/2003">
 <defs>
  <style type="text/css">
   <![CDATA[
    .fil1 {fill:#038F8F}
    .fil2 {fill:#ADF5FF}
    .fil0 {fill:white}
   ]]>
  </style>
 </defs>
 <g id="Layer_x0020_1">
  <metadata id="CorelCorpID_0Corel-Layer"/>
  <g id="_1481299448512">
   <polygon class="fil0" points="1681.95,119.24 1275.66,145.07 1275.66,1936.13 1122.24,1936.13 1122.24,3722.61 1836.69,3722.61 1836.69,3026.25 2892.28,3026.25 2892.28,3672.87 3165.85,3672.87 3165.85,3040.07 3422.84,3040.07 3422.84,2758.21 3268.82,2740.03 3269.23,2505.82 1817.35,2479.11 1817.35,1956.85 1681.95,1956.85 "/>
   <path class="fil1" d="M3183.05 1481.74c21.18,-0.36 43.86,-15.27 53.84,-33.74 13.84,-25.63 -0.26,-48.88 -20.98,-65.57 -8.8,-7.09 -18.01,-13.9 -27.06,-20.67 -15.6,-11.67 -31.3,-23.22 -47.03,-34.72 -41.94,-30.68 -84.13,-61.04 -126.53,-91.09 -41.43,-29.37 -83.1,-58.6 -125.34,-86.78 -14.93,-9.96 -30,-19.89 -45.33,-29.22 -5.14,-3.12 -16.4,-10.31 -21.99,-12.02l-12.16 -3.25 0 -12.63c0,-225.63 0,-451.26 0,-676.89 0,-29.84 0.84,-59.63 1.41,-89.45 0.48,-25.38 0.78,-50.92 -0.72,-76.27 -2.72,-46.1 -11.45,-87.13 -35.45,-127.17 -49.79,-83.04 -115.17,-116.84 -209.33,-121.62 -45.48,-2.31 -91.99,1.87 -137.27,6.05 -50.68,4.68 -101.23,9.74 -152.18,10.16 -31.65,0.26 -64.07,2.82 -95.63,5.29 -42.3,3.32 -84.58,7.23 -126.83,11.14 -42.43,3.93 -84.86,7.93 -127.33,11.46 -32.33,2.69 -65.26,5.45 -97.69,6.24l-1049.41 75.49c-27.31,1.96 -54.6,3.05 -81.94,4.27 -22,0.98 -44.18,2.05 -66.04,4.81 -42.64,5.37 -76.81,17 -113.11,40.85 -29.09,19.11 -56.15,48.79 -75.13,77.77 -21.17,32.32 -37.26,71.11 -37.26,110.21l0 1555.99 -16.07 0.36c-6.64,0.15 -14.72,1.92 -21.19,3.36 -11.77,2.62 -23.48,5.83 -35.06,9.17 -31.11,8.97 -62.02,19.15 -92.72,29.42 -33.03,11.04 -65.96,22.39 -98.94,33.55 -25.79,8.73 -51.87,17.68 -78.02,25.24 -15.46,4.47 -34.41,10.22 -47.09,20.43 -12.88,10.36 -17.03,23.85 -17.03,40.08l0 1083.02c0,31.84 19.41,51.25 51.25,51.25l812.26 0c31.84,0 51.25,-19.41 51.25,-51.25l0 -1083.02c0,-30.77 -24.26,-46.27 -49.75,-57.62 -18.23,-8.12 -37.85,-14.18 -56.95,-19.9 -21.79,-6.52 -43.68,-12.66 -65.22,-20 -17.13,-5.83 -34.12,-12.41 -51.03,-18.87 -20.4,-7.8 -40.8,-15.63 -61.32,-23.11 -19.89,-7.24 -40,-14.26 -60.32,-20.2 -14.57,-4.26 -31.32,-8.81 -46.48,-10.07l-15.08 -1.25 0 -1311.58 24.13 12.77c51.28,27.13 109.11,38.27 166.65,29.73 52.61,-7.82 102.02,-31.65 140.44,-68.48 39.21,-37.59 64.47,-86.24 72.39,-140 9.65,-65.47 -7.28,-130.42 -37.87,-188.24l-12.77 -24.13 27.29 0c104.9,0 208.28,-16.92 313.06,-16.92l16.44 0 0 1691.25 -16.44 0c-26.25,0 -59.15,-3.31 -84.49,3.16 -25.53,6.52 -34.45,21.8 -34.45,48.09l0 1437.9 -1031.76 0c-30.87,0 -51.68,20.79 -51.68,51.25 0,30.46 20.81,51.25 51.68,51.25l1031.76 0 0 168.25 -16.44 0c-34.61,0 -69.12,-1.62 -103.7,-2.76 -27.59,-0.91 -56.62,-1.83 -84.1,0.99 -16.34,1.67 -37.56,5.3 -50.95,15.53 -12.15,9.29 -15.56,22.66 -15.56,37.49 0,31.84 19.41,51.25 51.25,51.25l1218.39 0c30.87,0 51.68,-20.79 51.68,-51.25 0,-30.46 -20.81,-51.25 -51.68,-51.25l-219.5 0 0 -574.38 980.52 0 0 574.38 -16.44 0c-26.25,0 -59.15,-3.31 -84.49,3.16 -25.53,6.52 -34.45,21.8 -34.45,48.09 0,31.84 19.41,51.25 51.25,51.25l541.51 0c30.87,0 51.68,-20.79 51.68,-51.25 0,-30.46 -20.81,-51.25 -51.68,-51.25l-84.13 0 0 -574.38 16.44 0c34.73,0 69.41,0.7 104.13,1.48 24.25,0.55 48.81,1.3 73.05,0.57 19.21,-0.57 52.43,-1.43 65.5,-18.39 14.43,-18.72 14.31,-65.65 14.45,-88.1 0.19,-30.14 -0.66,-60.4 -1.29,-90.54 -0.88,-42.35 -1.53,-84.67 -1.53,-127.03 0,-24.87 -6.74,-40.22 -31.26,-46.96 -13.13,-3.61 -28.24,-4.33 -41.81,-4.58 -18.09,-0.33 -36.22,0.29 -54.32,0.29l-20.71 0 4.7 -20.17c14.53,-62.36 8.63,-128.97 -30.08,-181.72 -30.88,-42.09 -79.07,-68.86 -131.6,-68.86l-1319.44 0 0 -490.26c0,-26.29 -8.92,-41.58 -34.45,-48.09 -25.34,-6.47 -58.24,-3.16 -84.49,-3.16l-16.44 0 0 -1732.37 610.44 -45.56 -12.29 25.62c-39.17,81.63 -32.09,172.87 15.82,249.11 40.32,64.15 111.17,116.55 189.34,116.55 25.8,0 54.09,0.82 79.52,-3.72 26.23,-4.69 50.16,-15.84 73.55,-28.22l24.13 -12.77 0 629.47 -8.75 4.63c-56.25,29.77 -110.21,63.68 -164.81,96.32l-333.95 199.58 -0.32 0.17c-28.87,15.59 -56.44,33.39 -84.78,49.88 -25.31,14.72 -60.55,43.04 -50.59,76.89 6.33,21.52 29.32,36.93 51.34,36.93 7.23,-0.47 29.9,-11.59 36.75,-14.95 25.72,-12.63 51.04,-26.78 75.95,-40.94 70,-39.78 139.01,-81.84 207.71,-123.83 67.58,-41.3 134.89,-83.06 202.65,-124.04 23.25,-14.06 46.61,-28.15 70.27,-41.52 8.78,-4.97 29.63,-17.34 39.47,-18.45l3.09 -0.35 3 0.8c39.15,10.45 79.73,48.75 113.34,71.66 21.5,14.66 42.66,30.51 63.73,45.81 33.09,24.03 66.21,48.04 99.56,71.72 32.23,22.89 64.76,45.74 97.91,67.28 11.8,7.67 23.83,15.32 36.11,22.21 3.8,2.13 12.93,7.32 17.42,8.44zm-778.52 -1216.36c-5.05,-32.63 12.42,-71.98 31.58,-97.52 27.2,-36.24 66.4,-60.07 112.08,-63.19 40.73,-2.78 79.52,12.66 108.91,40.61 27.66,26.29 46.16,62.89 48.77,101.15 2.47,36.26 -7.45,70.87 -30.35,99.26 -20.61,25.57 -49.7,43.39 -81.34,51.74 -69.74,18.41 -139.74,-10.3 -171.14,-77.03 -1.6,-3.4 -2.92,-7.47 -4.17,-11.02 -1.97,-5.57 -3.88,-11.16 -5.77,-16.76 -1.84,-5.44 -3.66,-10.9 -5.42,-16.36 -1.05,-3.23 -2.63,-7.56 -3.15,-10.88zm-1895.28 135.38c-2.87,-18.56 5.66,-44.86 12.45,-62.13 5.96,-15.16 16.89,-39.27 28.28,-50.97 42.28,-43.44 104.01,-58.21 161.18,-37.81 57.46,20.5 95.28,71.09 99.44,131.97 2.47,36.26 -7.45,70.87 -30.35,99.26 -20.62,25.56 -49.7,43.39 -81.35,51.74 -69.74,18.4 -139.74,-10.3 -171.14,-77.03 -1.6,-3.4 -2.92,-7.47 -4.17,-11.02 -1.97,-5.57 -3.88,-11.16 -5.77,-16.76 -1.84,-5.44 -3.66,-10.9 -5.43,-16.36 -1.05,-3.23 -2.63,-7.56 -3.14,-10.88zm824.78 -204.67c43.41,-10.11 87.86,-7.02 131.78,-13.6l0.51 -0.08 158.63 -13.61 0 1726.56 -303.63 0 0 -1696.32 12.71 -2.96zm-1204.43 2110.88l-26.67 32.54 0 -218.78 363.43 -115.23 259.96 85.17c9.43,3.09 18.92,5.84 28.47,8.5 7.23,2.01 14.59,3.95 21.68,6.41 14.47,5.02 25.4,12.04 31.38,26.66 6.04,14.76 5.85,36.43 5.83,52.22 -0.04,33.52 -0.99,67.05 -0.99,100.61l0 16.44 -16.44 0c-42.58,0 -85.26,-0.75 -127.85,-1.15 -72.73,-0.68 -145.47,-1.21 -218.21,-1.33 -71.13,-0.11 -142.41,-0 -213.52,1.67 -24.94,0.59 -50.03,1.3 -74.92,2.93 -7.93,0.52 -15.93,1.11 -23.81,2.09 -2.16,0.27 -5.65,0.65 -8.34,1.25zm3027.29 400.66l-1294.06 0 0 -168.25 1294.06 0c43.6,0 92.59,38.63 92.59,84.13 0,45.49 -48.99,84.13 -92.59,84.13zm-3029.76 -310.14c6.45,2.6 26.3,3.98 33.31,4.53 24.32,1.91 48.9,2.75 73.28,3.43 69.75,1.94 139.74,1.99 209.51,1.8 72.48,-0.2 144.96,-0.92 217.44,-1.78 45.15,-0.54 90.43,-1.46 135.57,-1.46l16.44 0 0 303.63 -16.44 0c-42.58,0 -85.26,-0.75 -127.85,-1.15 -72.73,-0.68 -145.47,-1.21 -218.21,-1.32 -71.13,-0.11 -142.41,-0 -213.52,1.67 -24.94,0.59 -50.03,1.3 -74.92,2.93 -7.93,0.52 -15.93,1.12 -23.81,2.09 -2.16,0.27 -5.65,0.65 -8.34,1.25l-26.67 32.54 0 -361.75 24.2 13.6zm1735.7 412.64l1522.03 0 0 168.25 -1522.03 0 0 -168.25zm-1735.41 -6.35c9.93,5.58 6.28,6.35 17.33,6.35l667.94 0 0 303.63 -709.76 0 0 -323.74 24.49 13.76zm1058.52 -805.91l574.38 0 0 1657.4 -574.38 0 0 -1657.4zm1759.9 1083.02l168.25 0 0 574.38 -168.25 0 0 -574.38z"/>
   <polygon class="fil2" points="1760.33,3655.27 1760.33,1997.87 1473.14,1997.87 1473.14,3655.27 "/>
   <path class="fil2" d="M236.68 2300.7c71.11,-1.67 142.39,-1.78 213.52,-1.67 72.74,0.11 145.48,0.65 218.21,1.33 42.58,0.4 85.27,1.15 127.85,1.15l16.44 0 0 -16.44c0,-33.56 0.95,-67.08 0.99,-100.61 0.02,-15.79 0.21,-37.46 -5.83,-52.22 -5.99,-14.62 -16.92,-21.64 -31.38,-26.66 -7.09,-2.46 -14.45,-4.4 -21.69,-6.41 -9.55,-2.66 -19.04,-5.41 -28.47,-8.5l-259.96 -85.16 -363.43 115.23 0 218.78 26.67 -32.53c2.7,-0.6 6.18,-0.99 8.34,-1.26 7.89,-0.98 15.88,-1.57 23.81,-2.09 24.9,-1.62 49.98,-2.34 74.93,-2.93z"/>
   <path class="fil2" d="M443.24 2407.24c-69.78,0.19 -139.77,0.14 -209.52,-1.8 -24.38,-0.68 -48.97,-1.52 -73.28,-3.43 -7.01,-0.55 -26.86,-1.92 -33.31,-4.53l-24.2 -13.6 0 361.75 26.67 -32.54c2.7,-0.6 6.18,-0.98 8.34,-1.25 7.89,-0.98 15.88,-1.57 23.81,-2.09 24.9,-1.62 49.98,-2.34 74.93,-2.93 71.11,-1.67 142.39,-1.78 213.52,-1.67 72.74,0.11 145.48,0.64 218.21,1.32 42.58,0.4 85.27,1.15 127.85,1.15l16.44 0 0 -303.63 -16.44 0c-45.14,0 -90.43,0.93 -135.57,1.46 -72.47,0.86 -144.96,1.58 -217.43,1.78z"/>
   <path class="fil2" d="M812.69 2810.13l-667.94 0c-11.05,0 -7.41,-0.78 -17.33,-6.35l-24.49 -13.76 0 323.74 709.76 0 0 -303.63z"/>
  </g>
 </g>
</svg>
