<?xml version="1.0" encoding="UTF-8"?>
<!DOCTYPE svg PUBLIC "-//W3C//DTD SVG 1.1//EN" "http://www.w3.org/Graphics/SVG/1.1/DTD/svg11.dtd">
<!-- Creator: CorelDRAW -->
<svg xmlns="http://www.w3.org/2000/svg" xml:space="preserve" width="5.45663in" height="9.07487in" version="1.1" style="shape-rendering:geometricPrecision; text-rendering:geometricPrecision; image-rendering:optimizeQuality; fill-rule:evenodd; clip-rule:evenodd"
viewBox="0 0 582.83 969.3"
 xmlns:xlink="http://www.w3.org/1999/xlink"
 xmlns:xodm="http://www.corel.com/coreldraw/odm/2003">
 <defs>
  <style type="text/css">
   <![CDATA[
    .fil1 {fill:#038F8F;fill-rule:nonzero}
    .fil0 {fill:#ADF5FF;fill-rule:nonzero}
    .fil2 {fill:white;fill-rule:nonzero}
   ]]>
  </style>
 </defs>
 <g id="Layer_x0020_1">
  <metadata id="CorelCorpID_0Corel-Layer"/>
  <g id="_1481278194576">
   <rect class="fil0" x="10.62" y="10.62" width="561.58" height="948.05"/>
   <path class="fil1" d="M21.25 948.05l540.33 0 0 -926.8 -540.33 0 0 926.8zm550.95 21.25l-561.58 0c-5.87,0 -10.62,-4.76 -10.62,-10.62l0 -948.05c0,-5.87 4.76,-10.62 10.62,-10.62l561.58 0c5.87,0 10.62,4.76 10.62,10.62l0 948.05c0,5.87 -4.76,10.62 -10.62,10.62z"/>
   <rect class="fil2" x="54.4" y="57.31" width="474.02" height="857.57"/>
   <path class="fil1" d="M65.03 904.26l452.77 0 0 -836.32 -452.77 0 0 836.32zm463.39 21.25l-474.02 0c-5.87,0 -10.62,-4.76 -10.62,-10.62l0 -857.57c0,-5.87 4.76,-10.62 10.62,-10.62l474.02 0c5.87,0 10.62,4.76 10.62,10.62l0 857.57c0,5.87 -4.76,10.62 -10.62,10.62z"/>
   <path class="fil0" d="M421.25 530.04l-217.7 0 0 -336.8c0,0 41.59,-19.57 108.85,-19.57 67.26,0 108.85,19.57 108.85,19.57l0 336.8z"/>
   <path class="fil1" d="M415.15 468.33c0,-5.87 4.76,-10.62 10.62,-10.62 5.87,0 10.62,4.76 10.62,10.62l0 69.16c0,5.87 -4.76,10.62 -10.62,10.62l-240.04 0c-5.87,0 -10.62,-4.76 -10.62,-10.62 0,-5.87 4.76,-10.62 10.62,-10.62l229.41 0 0 -58.53z"/>
   <path class="fil1" d="M167.68 421.25c0,5.87 -4.76,10.62 -10.62,10.62 -5.87,0 -10.62,-4.76 -10.62,-10.62l0 -268.8c0,-4.55 2.86,-8.43 6.88,-9.95 6.51,-2.9 58.29,-24.83 138.1,-24.83 11.74,0 30.34,0.2 50.35,1.94 20.3,1.77 42.06,5.17 59.83,11.63 5.5,1.99 8.34,8.07 6.35,13.57 -1.99,5.5 -8.07,8.34 -13.57,6.35 -15.62,-5.68 -35.58,-8.74 -54.44,-10.38 -19.15,-1.67 -37.14,-1.86 -48.52,-1.86 -64.07,0 -108.19,14.55 -123.73,20.58l0 261.74z"/>
   <rect class="fil0" x="203.85" y="662.79" width="221.92" height="158.51"/>
   <path class="fil1" d="M167.68 810.67l247.47 0 0 -184.06 -247.47 0 0 184.06zm258.09 21.25l-268.72 0c-5.87,0 -10.62,-4.76 -10.62,-10.62l0 -205.31c0,-5.87 4.76,-10.62 10.62,-10.62l268.72 0c5.87,0 10.62,4.76 10.62,10.62l0 205.31c0,5.87 -4.76,10.62 -10.62,10.62z"/>
   <path class="fil1" d="M129.89 499.8c-5.87,0 -10.62,-4.76 -10.62,-10.62 0,-5.87 4.76,-10.62 10.62,-10.62l76.68 0c5.87,0 10.62,4.76 10.62,10.62 0,5.87 -4.76,10.62 -10.62,10.62l-76.68 0z"/>
   <circle class="fil2" cx="129.89" cy="489.18" r="30.19"/>
   <path class="fil1" d="M149.45 489.18c0,-5.4 -2.19,-10.3 -5.73,-13.84 -3.54,-3.54 -8.43,-5.73 -13.84,-5.73 -5.4,0 -10.3,2.19 -13.84,5.73 -3.54,3.54 -5.73,8.43 -5.73,13.84 0,5.4 2.19,10.3 5.73,13.84 3.54,3.54 8.43,5.73 13.84,5.73 5.4,0 10.3,-2.19 13.84,-5.73 3.54,-3.54 5.73,-8.43 5.73,-13.84zm9.29 -28.86c7.39,7.39 11.96,17.59 11.96,28.86 0,11.27 -4.57,21.47 -11.96,28.86 -7.39,7.39 -17.59,11.96 -28.86,11.96 -11.27,0 -21.47,-4.57 -28.86,-11.96 -7.39,-7.39 -11.96,-17.59 -11.96,-28.86 0,-11.27 4.57,-21.47 11.96,-28.86 7.39,-7.39 17.59,-11.96 28.86,-11.96 11.27,0 21.47,4.57 28.86,11.96z"/>
  </g>
 </g>
</svg>
