<?xml version="1.0" encoding="UTF-8"?>
<!DOCTYPE svg PUBLIC "-//W3C//DTD SVG 1.1//EN" "http://www.w3.org/Graphics/SVG/1.1/DTD/svg11.dtd">
<!-- Creator: CorelDRAW -->
<svg xmlns="http://www.w3.org/2000/svg" xml:space="preserve" width="5.42061in" height="8.99567in" version="1.1" style="shape-rendering:geometricPrecision; text-rendering:geometricPrecision; image-rendering:optimizeQuality; fill-rule:evenodd; clip-rule:evenodd"
viewBox="0 0 307.75 510.73"
 xmlns:xlink="http://www.w3.org/1999/xlink"
 xmlns:xodm="http://www.corel.com/coreldraw/odm/2003">
 <defs>
  <style type="text/css">
   <![CDATA[
    .fil2 {fill:#038F8F}
    .fil1 {fill:#ADF5FF}
    .fil0 {fill:white}
   ]]>
  </style>
 </defs>
 <g id="Layer_x0020_1">
  <metadata id="CorelCorpID_0Corel-Layer"/>
  <g id="_1481306636352">
   <path class="fil0" d="M5.7 506.3l296.4 0 0 -470.63 -268.86 0c-15.15,0 -27.54,12.39 -27.54,27.54l0 443.08z"/>
   <path class="fil1" d="M107.74 40.79l92.27 0c8.96,0 16.29,9.86 16.29,21.91l0 264.59c0,12.05 -7.33,21.91 -16.29,21.91l-92.27 0c-8.96,0 -16.29,-9.86 -16.29,-21.91l0 -264.59c0,-12.05 7.33,-21.91 16.29,-21.91z"/>
   <path class="fil2" d="M103.75 5.8l0 24.39 -72.41 0c-8.37,0 -16.31,5.91 -21.88,11.63 -6.5,6.67 -9.47,16.19 -9.47,25.37l0 347.17c0,3.23 2.41,5.93 5.7,5.99 1.44,0.03 2.75,-0.53 3.72,-1.61 1.5,-1.67 1.9,-4.23 1.9,-6.4l0 -52.56 285.13 0 0 140.35 -285.13 0 0 -52.56c0,-2.16 -0.4,-4.72 -1.9,-6.4 -0.97,-1.08 -2.27,-1.63 -3.72,-1.61 -3.29,0.06 -5.7,2.76 -5.7,5.99l0 59.37c0,3.56 2.06,5.8 5.66,5.8l296.44 0c1.7,0 3.3,-0.38 4.32,-1.82 1.12,-1.6 1.34,-4.1 1.34,-5.99l0 -432.73c0,-3.45 -2.16,-5.98 -5.66,-5.98 -3.5,0 -5.66,2.53 -5.66,5.98l0 279 -285.13 0 0 -285.02c0,-13.97 12.72,-23.38 25.96,-23.38l252.09 0c1.42,0 2.59,-0.49 3.59,-1.5 1,-1.01 1.47,-2.19 1.46,-3.61l-0.01 -0.5c-0.04,-2.76 -2.29,-4.98 -5.05,-4.98l-85.36 0 0 -2.25c0,-3.7 0.17,-7.4 0.28,-11.1 0.09,-3.08 0.16,-6.3 -0.19,-9.36 -0.21,-1.84 -0.64,-4.25 -1.78,-5.76 -0.99,-1.32 -2.36,-1.71 -3.97,-1.71l-88.93 0c-3.6,0 -5.66,2.24 -5.66,5.8zm11.31 4.8l77.62 0 0 19.59 -77.62 0 0 -19.59zm-26.14 374.58l0 89.56c0,3.56 2.06,5.8 5.66,5.8l118.58 0c1.7,0 3.3,-0.38 4.32,-1.83 1.12,-1.6 1.34,-4.1 1.34,-5.99l0 -85.54c0,-1.89 -0.21,-4.39 -1.34,-5.99 -1.02,-1.45 -2.63,-1.82 -4.32,-1.82l-118.58 0c-3.6,0 -5.66,2.24 -5.66,5.8zm11.31 4.8l107.26 0 0 49.78 -107.26 0 0 -49.78zm0 60.38l107.26 0 0 19.59 -107.26 0 0 -19.59zm97.52 -334.99l-36.11 -48.58c-1.51,-2.08 -4.02,-5.26 -6.46,-6.31 -1.44,-0.63 -2.59,-0.37 -3.87,0.48 -1.95,1.3 -3.85,3.77 -5.25,5.64 -2.31,3.1 -4.46,6.32 -6.77,9.43 -9.44,12.75 -19.76,25 -28.44,38.28 -4.15,6.35 -7.13,17.72 -7.13,25.35 0,6.38 1.63,14.8 4.37,20.52 1.32,2.75 2.67,5.69 4.35,8.24 1.62,2.44 3.64,4.58 5.69,6.65 4.26,4.31 8.37,8.26 13.92,10.88 10.11,4.76 21.22,6.28 32.15,3.76 9.99,-2.3 19.02,-7.76 25.96,-15.28 6.97,-7.55 11.72,-17.03 13.31,-27.2 1.73,-11.05 -0.43,-22.05 -5.75,-31.85zm-42.62 -37.95c2.12,1.45 4.22,4.29 5.73,6.37 1.64,2.26 3.21,4.68 4.95,6.85 9.25,11.53 26.87,31.87 26.87,47 0,12.95 -2.61,21.19 -11.75,30.52 -14.75,15.05 -38.78,15.66 -53.63,0.51 -7.51,-7.67 -12.24,-15.93 -12.24,-27 0,-10.14 2.72,-18.19 8.2,-26.56 2.56,-3.91 5.49,-7.6 8.41,-11.24 3.32,-4.15 6.65,-8.26 9.8,-12.55 1.76,-2.4 3.46,-4.84 5.25,-7.22 0.98,-1.3 1.98,-2.6 3.04,-3.84 0.81,-0.95 1.76,-2.03 2.76,-2.78l1.29 -0.96 1.33 0.9zm-21.75 62.24c0,5.97 1.8,11.67 6.35,15.73 3.85,3.43 9,5.07 14.11,5.03 5.1,-0.03 10.28,-1.73 14.17,-5.1 4.35,-3.77 6.33,-8.96 6.33,-14.66 0,-6.02 -1.77,-11.82 -6.35,-15.92 -3.84,-3.44 -8.99,-5.04 -14.09,-4.97 -5.12,0.07 -10.3,1.83 -14.18,5.22 -4.33,3.79 -6.33,8.96 -6.33,14.66zm11.31 0c0,-5.31 3.95,-9.08 9.16,-9.08 5.21,0 9.17,3.76 9.17,9.08 0,2.74 -0.85,5.39 -2.83,7.35 -1.69,1.66 -3.97,2.56 -6.33,2.56 -2.36,0 -4.64,-0.9 -6.33,-2.56 -1.98,-1.95 -2.83,-4.61 -2.83,-7.35zm92.44 289.81c0,5.99 1.8,11.72 6.35,15.81 3.84,3.45 8.99,5.09 14.11,5.05 5.11,-0.03 10.29,-1.74 14.16,-5.12 4.36,-3.8 6.33,-9.02 6.33,-14.73 0,-5.99 -1.8,-11.72 -6.35,-15.81 -3.84,-3.45 -8.99,-5.09 -14.11,-5.05 -5.11,0.03 -10.29,1.74 -14.16,5.12 -4.36,3.8 -6.33,9.02 -6.33,14.73zm11.31 2.01c0,-15.09 18.33,-15.09 18.33,0 0,5.1 -4.46,7.95 -9.17,7.95 -4.71,0 -9.16,-2.86 -9.16,-7.95zm-218.82 -2.01c0,5.99 1.8,11.72 6.35,15.81 3.84,3.45 8.99,5.09 14.11,5.05 5.11,-0.03 10.29,-1.74 14.16,-5.12 4.36,-3.8 6.33,-9.02 6.33,-14.73 0,-5.99 -1.8,-11.72 -6.35,-15.81 -3.84,-3.45 -8.99,-5.09 -14.11,-5.05 -5.11,0.03 -10.29,1.74 -14.16,5.12 -4.36,3.8 -6.33,9.02 -6.33,14.73zm11.31 2.01c0,-15.09 18.33,-15.09 18.33,0 0,5.1 -4.46,7.95 -9.16,7.95 -4.71,0 -9.16,-2.86 -9.16,-7.95z"/>
  </g>
 </g>
</svg>
