<?xml version="1.0" encoding="UTF-8"?>
<!DOCTYPE svg PUBLIC "-//W3C//DTD SVG 1.1//EN" "http://www.w3.org/Graphics/SVG/1.1/DTD/svg11.dtd">
<!-- Creator: CorelDRAW -->
<svg xmlns="http://www.w3.org/2000/svg" xml:space="preserve" width="7.21176in" height="8.13269in" version="1.1" style="shape-rendering:geometricPrecision; text-rendering:geometricPrecision; image-rendering:optimizeQuality; fill-rule:evenodd; clip-rule:evenodd"
viewBox="0 0 226.58 255.52"
 xmlns:xlink="http://www.w3.org/1999/xlink"
 xmlns:xodm="http://www.corel.com/coreldraw/odm/2003">
 <defs>
  <style type="text/css">
   <![CDATA[
    .fil0 {fill:white}
    .fil1 {fill:#038F8F;fill-rule:nonzero}
    .fil3 {fill:#ADF5FF;fill-rule:nonzero}
    .fil2 {fill:white;fill-rule:nonzero}
   ]]>
  </style>
 </defs>
 <g id="Layer_x0020_1">
  <metadata id="CorelCorpID_0Corel-Layer"/>
  <g id="_1481263331840">
   <polygon class="fil0" points="3.09,242.96 223.69,242.96 223.69,3.01 136.58,3.01 135.08,50.38 70.34,50.72 67.66,106.1 3.4,106.87 "/>
   <path class="fil1" d="M146.03 233.34l-66.63 0c-1.67,0 -3.02,-1.35 -3.02,-3.02l0 -168.42c0,-1.67 1.35,-3.02 3.02,-3.02l66.63 0c1.67,0 3.02,1.35 3.02,3.02l0 168.42c0,1.67 -1.35,3.02 -3.02,3.02zm-63.61 -6.04l60.59 0 0 -162.38 -60.59 0 0 162.38z"/>
   <g>
    <path class="fil2" d="M5.3 116.94l184.14 1.73 -184.14 -1.73zm0 0l0 0 0 0z"/>
   </g>
   <path class="fil1" d="M5.28 119.95c-1.66,-0.01 -3,-1.37 -2.99,-3.03 0.01,-1.66 1.37,-3 3.03,-2.99l198.93 1.45c1.66,0.01 3,1.37 2.99,3.03 -0.01,1.66 -1.37,3 -3.03,2.99l-198.93 -1.45z"/>
   <g>
    <path class="fil2" d="M14.81 173.82l204.6 0 -204.6 0zm0 0l0 0 0 0z"/>
   </g>
   <path class="fil1" d="M14.81 176.84c-1.67,0 -3.02,-1.35 -3.02,-3.02 0,-1.67 1.35,-3.02 3.02,-3.02l204.6 0c1.67,0 3.02,1.35 3.02,3.02 0,1.67 -1.35,3.02 -3.02,3.02l-204.6 0z"/>
   <g>
    <path class="fil2" d="M223.1 231.18l0 21.32 0 -21.32zm0 0l0 0 0 0z"/>
   </g>
   <path class="fil1" d="M220.08 231.18c0,-1.67 1.35,-3.02 3.02,-3.02 1.67,0 3.02,1.35 3.02,3.02l0 21.32c0,1.67 -1.35,3.02 -3.02,3.02 -1.67,0 -3.02,-1.35 -3.02,-3.02l0 -21.32z"/>
   <g>
    <path class="fil2" d="M3.09 223.83l0 28.18 0 -28.18zm0 0l0 0 0 0z"/>
   </g>
   <path class="fil1" d="M0.07 223.83c0,-1.67 1.35,-3.02 3.02,-3.02 1.67,0 3.02,1.35 3.02,3.02l0 28.18c0,1.67 -1.35,3.02 -3.02,3.02 -1.67,0 -3.02,-1.35 -3.02,-3.02l0 -28.18z"/>
   <path class="fil1" d="M163.26 0c1.66,0 3.01,1.35 3.01,3.01 0,1.66 -1.35,3.01 -3.01,3.01l-24.62 0.07c-0.22,0 -0.42,0.09 -0.57,0.24 -0.15,0.15 -0.24,0.35 -0.24,0.59l0 43.29c0,1.67 -1.35,3.02 -3.02,3.02 -0.09,0 -0.19,-0 -0.28,-0.01l-61.75 -0.22 0 0.01 -0.02 0c-0.46,0 -0.88,0.19 -1.18,0.49 -0.3,0.3 -0.49,0.72 -0.49,1.18l0 50.96c0,1.67 -1.35,3.02 -3.02,3.02 -0.09,0 -0.18,-0 -0.27,-0.01l-57.87 0c-1.06,0 -2.03,0.44 -2.74,1.16 -0.71,0.71 -1.15,1.68 -1.16,2.74l0.01 0 0 127.52 214.05 -0.47 0.47 -112.1c0.01,-1.66 1.36,-3 3.02,-3 1.66,0.01 3,1.36 3,3.02l-0.48 113.55c0.01,0.08 0.01,0.17 0.01,0.25 0,1.18 -0.48,2.25 -1.26,3.02 -0.77,0.78 -1.85,1.26 -3.03,1.26l-218.53 0.48c-0.09,0.01 -0.18,0.01 -0.27,0.01 -1.67,0 -3.02,-1.35 -3.02,-3.02l0 -130.54 0.01 0c0.01,-2.75 1.12,-5.23 2.9,-7.01 1.79,-1.79 4.26,-2.89 7.01,-2.9l55.12 -0 0 -47.95c0,-2.13 0.86,-4.06 2.26,-5.45 1.4,-1.4 3.32,-2.26 5.45,-2.26l0.02 0 0 0.01 59.01 0.21 0 -40.27c0,-1.88 0.77,-3.59 2.01,-4.84 1.24,-1.24 2.95,-2.01 4.85,-2.01l24.62 -0.07zm-148.87 113.99l62.03 0.23 0 -52.64c0,-1.67 1.35,-3.02 3.02,-3.02 0.09,0 0.18,0 0.27,0.01l63.44 0 0 -43.47c0,-1.67 1.35,-3.02 3.02,-3.02l63.84 0c1.67,0 3.02,1.35 3.02,3.02 0,0.09 -0,0.17 -0.01,0.26l0.48 215.12c0,1.66 -1.35,3.01 -3.01,3.01l-195.62 -0c-1.66,0 -3,-1.34 -3.01,-3l-0.48 -113.47c-0.01,-1.66 1.34,-3.01 3,-3.02l0.01 0zm65.05 6.26l-62.02 -0.23 0.46 107.44 189.61 0 -0.47 -209.35 -57.82 0 0 43.46 -0.01 0c0,1.66 -1.35,3.01 -3.01,3.01l-63.71 -0 0 52.65 -0.01 0c0,1.66 -1.35,3.01 -3.01,3.01z"/>
   <g>
    <path class="fil3" d="M61.34 153.99l0 -24.48 -28.34 0 0 44.09 28.34 0 0 -20.53 0 0.92zm0 0l0 0 0 0z"/>
   </g>
   <path class="fil1" d="M58.32 153.99l0 -21.46 -22.3 0 0 38.04 22.3 0 0 -16.59zm6.04 -24.48l0 44.09c0,1.67 -1.35,3.02 -3.02,3.02l-28.34 0c-1.67,0 -3.02,-1.35 -3.02,-3.02l0 -44.09c0,-1.67 1.35,-3.02 3.02,-3.02l28.34 0c1.67,0 3.02,1.35 3.02,3.02z"/>
   <polygon class="fil3" points="198.94,207.81 198.94,230.06 157.51,230.06 157.51,207.81 "/>
   <path class="fil1" d="M201.96 207.81l0 22.25c0,1.67 -1.35,3.02 -3.02,3.02l-41.43 0c-1.67,0 -3.02,-1.35 -3.02,-3.02l0 -22.25c0,-1.67 1.35,-3.02 3.02,-3.02l41.43 0c1.67,0 3.02,1.35 3.02,3.02zm-6.04 19.23l0 -16.21 -35.38 0 0 16.21 35.38 0z"/>
   <path class="fil2" d="M114.58 49.97l-32.43 0 0 -21 32.43 -0c4.66,0 8.43,3.78 8.43,8.43l0 4.14c0,4.66 -3.78,8.43 -8.43,8.43l0 -0z"/>
   <path class="fil1" d="M114.57 52.99l-32.42 0c-1.67,0 -3.02,-1.35 -3.02,-3.02l0 -21c0,-1.67 1.35,-3.02 3.02,-3.02 0.09,0 0.18,0 0.27,0.01l32.16 -0c3.17,0 6.03,1.28 8.1,3.34 2.07,2.07 3.36,4.94 3.36,8.1l0 4.14c0,3.16 -1.28,6.03 -3.36,8.1 -2.07,2.07 -4.94,3.36 -8.1,3.36l-0.01 -0zm-29.4 -6.04l29.4 0c1.49,0 2.85,-0.61 3.83,-1.59 0.98,-0.98 1.59,-2.33 1.59,-3.83l0 -4.14c0,-1.49 -0.61,-2.85 -1.59,-3.83 -0.99,-0.99 -2.34,-1.6 -3.83,-1.6l-29.4 0 0 14.97z"/>
   <path class="fil2" d="M49.08 79.64l-16.86 0 0 -14.46c0,-3.72 3.02,-6.74 6.74,-6.74l3.38 0c3.72,0 6.74,3.02 6.74,6.74l0 14.45z"/>
   <path class="fil1" d="M49.08 82.66l-16.86 0c-1.67,0 -3.02,-1.35 -3.02,-3.02l0 -14.46 0.01 0c0,-2.69 1.09,-5.13 2.85,-6.89 1.77,-1.77 4.21,-2.86 6.9,-2.86l0 -0.01 3.38 0c2.7,0 5.14,1.09 6.9,2.86 1.77,1.77 2.86,4.21 2.86,6.9l0 14.45c0,1.67 -1.35,3.02 -3.02,3.02zm-13.84 -6.04l10.82 0 0 -11.43c0,-1.03 -0.42,-1.96 -1.09,-2.63 -0.67,-0.67 -1.6,-1.09 -2.63,-1.09l-3.38 0 0 -0.01c-1.03,0 -1.95,0.42 -2.63,1.09 -0.68,0.68 -1.1,1.61 -1.1,2.64l0.01 0 0 11.43z"/>
   <g>
    <path class="fil2" d="M40.64 58.44l0 -4.34 0 4.34zm0 0l0 0 0 0z"/>
   </g>
   <path class="fil1" d="M43.66 58.44c0,1.67 -1.35,3.02 -3.02,3.02 -1.67,0 -3.02,-1.35 -3.02,-3.02l0 -4.34c0,-1.67 1.35,-3.02 3.02,-3.02 1.67,0 3.02,1.35 3.02,3.02l0 4.34z"/>
   <g>
    <path class="fil2" d="M33.56 60.79l-2.71 -2.29 2.71 2.29zm0 0l0 0 0 0z"/>
   </g>
   <path class="fil1" d="M35.51 58.49c1.27,1.08 1.43,2.98 0.35,4.25 -1.08,1.27 -2.98,1.43 -4.25,0.35l-2.71 -2.29c-1.27,-1.08 -1.43,-2.98 -0.35,-4.25 1.08,-1.27 2.98,-1.43 4.25,-0.35l2.71 2.29z"/>
   <g>
    <path class="fil2" d="M31.73 68.56l-3.37 0 3.37 0zm0 0l0 0 0 0z"/>
   </g>
   <path class="fil1" d="M31.73 65.54c1.67,0 3.02,1.35 3.02,3.02 0,1.67 -1.35,3.02 -3.02,3.02l-3.37 0c-1.67,0 -3.02,-1.35 -3.02,-3.02 0,-1.67 1.35,-3.02 3.02,-3.02l3.37 0z"/>
   <g>
    <path class="fil2" d="M52.6 61.79l-3.67 1.49 3.67 -1.49zm0 0l0 0 0 0z"/>
   </g>
   <path class="fil1" d="M51.47 58.99c1.54,-0.63 3.3,0.12 3.93,1.66 0.63,1.54 -0.12,3.3 -1.66,3.93l-3.67 1.49c-1.54,0.63 -3.3,-0.12 -3.93,-1.66 -0.63,-1.54 0.12,-3.3 1.66,-3.93l3.67 -1.49z"/>
   <g>
    <path class="fil2" d="M52.93 72.41l-3.85 0 3.85 0zm0 0l0 0 0 0z"/>
   </g>
   <path class="fil1" d="M52.93 69.39c1.67,0 3.02,1.35 3.02,3.02 0,1.67 -1.35,3.02 -3.02,3.02l-3.85 0c-1.67,0 -3.02,-1.35 -3.02,-3.02 0,-1.67 1.35,-3.02 3.02,-3.02l3.85 0z"/>
   <polygon class="fil2" points="27.39,79.88 46.67,79.88 41.85,105.38 32.21,105.38 "/>
   <path class="fil1" d="M27.39 76.86l19.27 0c1.67,0 3.02,1.35 3.02,3.02 0,0.27 -0.04,0.53 -0.1,0.78l-4.78 25.27c-0.28,1.51 -1.64,2.54 -3.13,2.45l-9.47 -0c-1.47,0 -2.7,-1.06 -2.96,-2.46l-0 0 -4.82 -25.5c-0.31,-1.64 0.77,-3.21 2.41,-3.52 0.19,-0.03 0.37,-0.05 0.55,-0.05l0 -0.01zm15.63 6.04l-12 0 3.68 19.47 4.64 0 3.68 -19.47z"/>
   <polygon class="fil3" points="27.39,79.88 53.9,79.88 49.08,105.38 32.21,105.38 "/>
   <path class="fil1" d="M27.39 76.86l26.5 0c1.67,0 3.02,1.35 3.02,3.02 0,0.27 -0.04,0.53 -0.1,0.78l-4.78 25.27c-0.28,1.51 -1.64,2.54 -3.13,2.45l-16.7 -0c-1.47,0 -2.7,-1.06 -2.96,-2.46l-0 0 -4.82 -25.5c-0.31,-1.64 0.77,-3.21 2.41,-3.52 0.19,-0.03 0.37,-0.05 0.55,-0.05l0 -0.01zm22.86 6.04l-19.22 0 3.68 19.47 11.87 0 3.68 -19.47z"/>
   <circle class="fil2" cx="113.35" cy="95.42" r="18.37"/>
   <path class="fil1" d="M128.7 95.42c0,-4.24 -1.72,-8.08 -4.5,-10.85 -2.78,-2.78 -6.62,-4.5 -10.85,-4.5 -4.24,0 -8.08,1.72 -10.85,4.5 -2.78,2.78 -4.5,6.62 -4.5,10.85 0,4.24 1.72,8.08 4.5,10.85 2.78,2.78 6.61,4.5 10.85,4.5 4.24,0 8.08,-1.72 10.85,-4.5 2.78,-2.78 4.5,-6.62 4.5,-10.85zm-0.22 -15.13c3.87,3.87 6.27,9.22 6.27,15.13 0,5.91 -2.39,11.26 -6.27,15.13 -3.87,3.87 -9.22,6.27 -15.13,6.27 -5.91,0 -11.26,-2.39 -15.13,-6.27 -3.87,-3.87 -6.27,-9.22 -6.27,-15.13 0,-5.91 2.39,-11.25 6.27,-15.13 3.87,-3.87 9.22,-6.27 15.13,-6.27 5.91,0 11.25,2.39 15.13,6.27z"/>
   <g>
    <path class="fil2" d="M119.28 94.53l-4.74 4.74 -7.11 -7.7 11.85 2.96zm0 0l0 0 0 0z"/>
   </g>
   <path class="fil1" d="M117.14 92.39c1.18,-1.18 3.09,-1.18 4.27,0 1.18,1.18 1.18,3.09 0,4.27l-4.74 4.74c-1.18,1.18 -3.09,1.18 -4.27,0 -0.07,-0.07 -0.14,-0.15 -0.21,-0.23l-6.98 -7.57c-1.13,-1.23 -1.05,-3.13 0.18,-4.26 1.23,-1.13 3.13,-1.05 4.26,0.18l4.98 5.39 2.52 -2.52z"/>
   <g>
    <path class="fil2" d="M122.31 189.02l-20.72 0 20.72 0zm0 0l0 0 0 0z"/>
   </g>
   <path class="fil1" d="M122.31 186c1.67,0 3.02,1.35 3.02,3.02 0,1.67 -1.35,3.02 -3.02,3.02l-20.72 0c-1.67,0 -3.02,-1.35 -3.02,-3.02 0,-1.67 1.35,-3.02 3.02,-3.02l20.72 0z"/>
   <g>
    <path class="fil2" d="M56.3 189.02l-20.72 0 20.72 0zm0 0l0 0 0 0z"/>
   </g>
   <path class="fil1" d="M56.3 186c1.67,0 3.02,1.35 3.02,3.02 0,1.67 -1.35,3.02 -3.02,3.02l-20.72 0c-1.67,0 -3.02,-1.35 -3.02,-3.02 0,-1.67 1.35,-3.02 3.02,-3.02l20.72 0z"/>
   <polygon class="fil2" points="123.76,173.6 112.68,173.6 112.68,136.26 123.76,136.26 "/>
   <path class="fil1" d="M123.76 176.62l-11.08 0c-1.67,0 -3.02,-1.35 -3.02,-3.02l0 -37.34c0,-1.67 1.35,-3.02 3.02,-3.02l11.08 0c1.67,0 3.02,1.35 3.02,3.02l0 37.34c0,1.67 -1.35,3.02 -3.02,3.02zm-8.06 -6.04l5.04 0 0 -31.3 -5.04 0 0 31.3z"/>
   <polygon class="fil3" points="112.68,173.6 92.35,173.6 92.35,131.24 112.68,131.24 "/>
   <path class="fil1" d="M112.68 176.62l-20.33 0c-1.67,0 -3.02,-1.35 -3.02,-3.02l0 -42.36c0,-1.67 1.35,-3.02 3.02,-3.02l20.33 0c1.67,0 3.02,1.35 3.02,3.02l0 42.36c0,1.67 -1.35,3.02 -3.02,3.02zm-17.31 -6.04l14.29 0 0 -36.32 -14.29 0 0 36.32z"/>
   <polygon class="fil2" points="199.37,230.45 177.55,230.45 177.55,185.61 199.37,185.61 "/>
   <path class="fil1" d="M199.37 233.41l-21.82 0c-1.63,0 -2.96,-1.33 -2.96,-2.96l0 -44.85c0,-1.63 1.33,-2.96 2.96,-2.96l21.82 0c1.63,0 2.96,1.33 2.96,2.96l0 44.85c0,1.63 -1.33,2.96 -2.96,2.96zm-18.86 -5.92l15.9 0 0 -38.93 -15.9 0 0 38.93z"/>
   <g>
    <path class="fil3" d="M198.67 90.68l0 -34.91 -28.34 0 0 62.87 28.34 0 0 -29.27 0 1.31zm0 0l0 0 0 0z"/>
   </g>
   <path class="fil1" d="M195.18 98.77l0 -40.97 -32.45 0 0 57.55 32.45 0 0 -16.59zm6.04 -43.99l0 63.6c0,1.67 -1.35,3.02 -3.02,3.02l-38.49 0c-1.67,0 -3.02,-1.35 -3.02,-3.02l0 -63.6c0,-1.67 1.35,-3.02 3.02,-3.02l38.49 0c1.67,0 3.02,1.35 3.02,3.02z"/>
  </g>
 </g>
</svg>
