<?xml version="1.0" encoding="UTF-8"?>
<!DOCTYPE svg PUBLIC "-//W3C//DTD SVG 1.1//EN" "http://www.w3.org/Graphics/SVG/1.1/DTD/svg11.dtd">
<!-- Creator: CorelDRAW -->
<svg xmlns="http://www.w3.org/2000/svg" xml:space="preserve" width="5.94761in" height="8.31697in" version="1.1" style="shape-rendering:geometricPrecision; text-rendering:geometricPrecision; image-rendering:optimizeQuality; fill-rule:evenodd; clip-rule:evenodd"
viewBox="0 0 170.39 238.27"
 xmlns:xlink="http://www.w3.org/1999/xlink"
 xmlns:xodm="http://www.corel.com/coreldraw/odm/2003">
 <defs>
  <style type="text/css">
   <![CDATA[
    .fil0 {fill:white}
    .fil1 {fill:#038F8F;fill-rule:nonzero}
    .fil2 {fill:#ADF5FF;fill-rule:nonzero}
    .fil3 {fill:#ADF5FF;fill-rule:nonzero}
   ]]>
  </style>
 </defs>
 <g id="Layer_x0020_1">
  <metadata id="CorelCorpID_0Corel-Layer"/>
  <g id="_1481263813296">
   <rect class="fil0" x="3.5" y="15.09" width="163.39" height="219.68" rx="8.03" ry="8.03"/>
   <path class="fil1" d="M164.88 118.65c0,-1.52 1.23,-2.76 2.76,-2.76 1.52,0 2.76,1.23 2.76,2.76l0 107.67c0,3.3 -1.34,6.29 -3.5,8.45 -2.16,2.16 -5.15,3.5 -8.45,3.5l-146.5 0c-3.3,0 -6.29,-1.34 -8.45,-3.5 -2.16,-2.16 -3.5,-5.15 -3.5,-8.45l0 -202.79c0,-3.3 1.34,-6.29 3.5,-8.45 2.16,-2.16 5.15,-3.5 8.45,-3.5l146.5 0c3.3,0 6.29,1.34 8.45,3.5 2.16,2.16 3.5,5.15 3.5,8.45 0,1.52 -1.23,2.76 -2.76,2.76 -1.52,0 -2.76,-1.23 -2.76,-2.76 0,-1.78 -0.72,-3.39 -1.89,-4.55 -1.16,-1.16 -2.77,-1.89 -4.55,-1.89l-146.5 0c-1.78,0 -3.39,0.72 -4.55,1.89 -1.17,1.16 -1.89,2.77 -1.89,4.55l0 202.79c0,1.78 0.72,3.39 1.89,4.55 1.16,1.17 2.77,1.89 4.55,1.89l146.5 0c1.78,0 3.39,-0.72 4.55,-1.89 1.16,-1.17 1.89,-2.77 1.89,-4.55l0 -107.67z"/>
   <path class="fil1" d="M5.51 131.21c0,1.52 -1.23,2.76 -2.76,2.76 -1.52,0 -2.76,-1.23 -2.76,-2.76l0 -107.67c0,-3.3 1.34,-6.29 3.5,-8.45 2.16,-2.16 5.15,-3.5 8.45,-3.5l146.5 0c3.3,0 6.29,1.34 8.45,3.5 2.16,2.16 3.5,5.15 3.5,8.45l0 202.79c0,3.3 -1.34,6.29 -3.5,8.45 -2.16,2.16 -5.15,3.5 -8.45,3.5l-146.5 0c-3.3,0 -6.29,-1.34 -8.45,-3.5 -2.16,-2.16 -3.5,-5.15 -3.5,-8.45 0,-1.52 1.23,-2.76 2.76,-2.76 1.52,0 2.76,1.23 2.76,2.76 0,1.78 0.72,3.39 1.89,4.55 1.16,1.16 2.77,1.89 4.55,1.89l146.5 0c1.78,0 3.39,-0.72 4.55,-1.89 1.17,-1.16 1.89,-2.77 1.89,-4.55l0 -202.79c0,-1.78 -0.72,-3.39 -1.89,-4.55 -1.16,-1.17 -2.77,-1.89 -4.55,-1.89l-146.5 0c-1.78,0 -3.39,0.72 -4.55,1.89 -1.16,1.17 -1.89,2.77 -1.89,4.55l0 107.67z"/>
   <path class="fil1" d="M149.88 105.99c0,-1.52 1.23,-2.76 2.76,-2.76 1.52,0 2.76,1.23 2.76,2.76l0 105.51c0,2.89 -1.17,5.5 -3.07,7.4 -1.89,1.89 -4.51,3.07 -7.4,3.07l-119.47 0c-2.89,0 -5.5,-1.17 -7.4,-3.07 -1.89,-1.89 -3.07,-4.51 -3.07,-7.4l0 -174.63c0,-2.89 1.17,-5.5 3.07,-7.4 1.89,-1.89 4.51,-3.07 7.4,-3.07l99.41 0c1.52,0 2.76,1.23 2.76,2.76 0,1.52 -1.23,2.76 -2.76,2.76l-99.41 0c-1.37,0 -2.61,0.55 -3.5,1.45 -0.9,0.9 -1.45,2.13 -1.45,3.5l0 174.63c0,1.37 0.55,2.61 1.45,3.5 0.9,0.9 2.13,1.45 3.5,1.45l119.47 0c1.37,0 2.61,-0.55 3.5,-1.45 0.9,-0.9 1.45,-2.13 1.45,-3.5l0 -105.51z"/>
   <path class="fil1" d="M20.5 142.38c0,1.52 -1.23,2.76 -2.76,2.76 -1.52,0 -2.76,-1.23 -2.76,-2.76l0 -105.51c0,-2.89 1.17,-5.5 3.07,-7.4 1.89,-1.89 4.51,-3.07 7.4,-3.07l119.47 0c2.89,0 5.5,1.17 7.4,3.07 1.89,1.89 3.07,4.51 3.07,7.4l0 174.63c0,2.89 -1.17,5.5 -3.07,7.4 -1.89,1.89 -4.51,3.07 -7.4,3.07l-99.41 0c-1.52,0 -2.76,-1.23 -2.76,-2.76 0,-1.52 1.23,-2.76 2.76,-2.76l99.41 0c1.37,0 2.61,-0.55 3.5,-1.45 0.9,-0.9 1.45,-2.13 1.45,-3.5l0 -174.63c0,-1.37 -0.55,-2.61 -1.45,-3.5 -0.9,-0.9 -2.13,-1.45 -3.5,-1.45l-119.47 0c-1.37,0 -2.61,0.55 -3.5,1.45 -0.9,0.9 -1.45,2.13 -1.45,3.5l0 105.51z"/>
   <polygon class="fil2" points="50.94,136.29 88.83,71.76 130.35,136.29 "/>
   <path class="fil1" d="M34.19 141.92l48.68 -77.36c0.81,-1.28 2.5,-1.67 3.79,-0.86 0.37,0.24 0.67,0.55 0.89,0.9l48.77 77.5c0.81,1.28 0.42,2.98 -0.86,3.79 -0.46,0.29 -0.96,0.42 -1.46,0.42l0 0.01 -97.59 0c-1.52,0 -2.76,-1.23 -2.76,-2.76 0,-0.62 0.2,-1.18 0.54,-1.64zm51 -70.74l-43.81 69.63 87.63 0 -43.81 -69.63z"/>
   <g>
    <path class="fil1" d="M83.18 88.99c0.77,-1.31 2.46,-1.74 3.77,-0.97 1.31,0.77 1.74,2.46 0.97,3.77l-7.19 12.17 13.08 -3.27c1.47,-0.37 2.97,0.53 3.34,2 0.17,0.69 0.07,1.38 -0.24,1.96l0 0 -13.78 25.95c-0.71,1.34 -2.38,1.85 -3.72,1.14 -1.34,-0.71 -1.85,-2.38 -1.14,-3.72l10.88 -20.49 -13.46 3.37 -0 -0c-0.68,0.17 -1.42,0.08 -2.07,-0.3 -1.31,-0.77 -1.74,-2.46 -0.97,-3.77l10.54 -17.84z"/>
    <path class="fil1" d="M72.88 124.31c-0.59,-1.4 0.06,-3.01 1.45,-3.61 1.4,-0.59 3.01,0.06 3.61,1.45l2.72 6.35 7.46 -1.87c1.47,-0.37 2.97,0.53 3.34,2 0.37,1.47 -0.53,2.97 -2,3.34l-9.73 2.43 -0 -0c-1.29,0.32 -2.66,-0.33 -3.2,-1.59l-3.65 -8.51z"/>
   </g>
   <rect class="fil3" x="30.53" y="2.93" width="29.1" height="11.46"/>
   <path class="fil1" d="M33.28 11.64l23.59 0 0 -5.95 -23.59 0 0 5.95zm26.34 5.51l-29.1 0c-1.52,0 -2.76,-1.23 -2.76,-2.76l0 -11.46c0,-1.52 1.23,-2.76 2.76,-2.76l29.1 0c1.52,0 2.76,1.23 2.76,2.76l0 11.46c0,1.52 -1.23,2.76 -2.76,2.76z"/>
   <rect class="fil3" x="110.32" y="2.76" width="29.1" height="11.46"/>
   <path class="fil1" d="M113.07 11.46l23.59 0 0 -5.95 -23.59 0 0 5.95zm26.34 5.51l-29.1 0c-1.52,0 -2.76,-1.23 -2.76,-2.76l0 -11.46c0,-1.52 1.23,-2.76 2.76,-2.76l29.1 0c1.52,0 2.76,1.23 2.76,2.76l0 11.46c0,1.52 -1.23,2.76 -2.76,2.76z"/>
   <circle class="fil2" cx="120.02" cy="176.44" r="14.11"/>
   <path class="fil1" d="M131.37 176.44c0,-3.13 -1.27,-5.97 -3.32,-8.03 -2.05,-2.05 -4.89,-3.32 -8.03,-3.32 -3.13,0 -5.97,1.27 -8.03,3.32 -2.05,2.05 -3.32,4.89 -3.32,8.03 0,3.13 1.27,5.97 3.32,8.03 2.05,2.05 4.89,3.32 8.03,3.32 3.13,0 5.97,-1.27 8.03,-3.32 2.05,-2.05 3.32,-4.89 3.32,-8.03zm0.57 -11.92c3.05,3.05 4.94,7.27 4.94,11.92 0,4.66 -1.89,8.87 -4.94,11.92 -3.05,3.05 -7.27,4.94 -11.92,4.94 -4.66,0 -8.87,-1.89 -11.92,-4.94 -3.05,-3.05 -4.94,-7.27 -4.94,-11.92 0,-4.66 1.89,-8.87 4.94,-11.92 3.05,-3.05 7.27,-4.94 11.92,-4.94 4.66,0 8.87,1.89 11.92,4.94z"/>
  </g>
 </g>
</svg>
