<?xml version="1.0" encoding="UTF-8"?>
<!DOCTYPE svg PUBLIC "-//W3C//DTD SVG 1.1//EN" "http://www.w3.org/Graphics/SVG/1.1/DTD/svg11.dtd">
<!-- Creator: CorelDRAW -->
<svg xmlns="http://www.w3.org/2000/svg" xml:space="preserve" width="6.92111in" height="8.50542in" version="1.1" style="shape-rendering:geometricPrecision; text-rendering:geometricPrecision; image-rendering:optimizeQuality; fill-rule:evenodd; clip-rule:evenodd"
viewBox="0 0 254.53 312.8"
 xmlns:xlink="http://www.w3.org/1999/xlink"
 xmlns:xodm="http://www.corel.com/coreldraw/odm/2003">
 <defs>
  <style type="text/css">
   <![CDATA[
    .fil1 {fill:#038F8F}
    .fil2 {fill:#ADF5FF}
    .fil0 {fill:white}
   ]]>
  </style>
 </defs>
 <g id="Layer_x0020_1">
  <metadata id="CorelCorpID_0Corel-Layer"/>
  <g id="_1481266115760">
   <rect class="fil0" x="15.74" y="57.66" width="223.47" height="221.58"/>
   <path class="fil1" d="M61.15 312.8c0.89,-0.09 2.05,-0.25 2.84,-0.67 0.54,-0.29 0.84,-0.68 1.11,-1.23 0.45,-0.94 0.71,-2.18 0.92,-3.19 0.39,-1.87 0.74,-3.74 1.15,-5.61 0.6,-2.71 1.16,-5.42 1.74,-8.13 0.55,-2.59 1.45,-5.32 1.67,-7.96l0.14 -1.63 1.64 0c1.92,0 3.85,0.04 5.78,0.06 3.05,0.03 6.1,0.05 9.15,0.05 2.97,-0 5.95,-0.02 8.92,-0.12 1.07,-0.04 2.14,-0.08 3.21,-0.17 0.39,-0.03 1.13,-0.08 1.5,-0.2 2.13,-0.79 3.37,-2.91 3,-5.15 -0.47,-2.78 -3.02,-3.88 -5.6,-3.88l-77.78 0 0 -164.73 3.13 3.6c8.92,10.26 27.5,14.83 40.67,14.83l126.05 0c13.36,0 31.6,-4.39 40.67,-14.83l3.13 -3.6 0 164.73 -77.78 0c-2.58,0 -5.13,1.09 -5.6,3.88 -0.38,2.24 0.87,4.37 3,5.15 0.36,0.12 1.11,0.17 1.5,0.2 1.06,0.09 2.14,0.14 3.21,0.17 2.97,0.1 5.95,0.12 8.92,0.12 3.05,0 6.1,-0.02 9.15,-0.05 1.92,-0.02 3.85,-0.06 5.78,-0.06l1.45 0 3.63 17.22c0.45,1.95 0.82,3.92 1.22,5.89 0.22,1.06 0.48,2.37 0.93,3.36 0.26,0.57 0.57,0.97 1.12,1.27 0.82,0.44 2.05,0.6 2.98,0.68l22.65 0c3.22,0 4.3,-8.99 4.8,-11.22 1.17,-5.26 2.13,-10.57 3.35,-15.82l0.32 -1.38 1.41 0c1.47,0 2.98,0.13 4.46,0.17 1.99,0.06 4,0.07 5.98,-0.12 1.54,-0.15 3.49,-0.45 4.87,-1.18 0.85,-0.45 1.45,-1.02 1.45,-2.03l0 -219.28 1.78 0c2.1,0 4.68,0.04 6.68,-0.61 1.83,-0.6 2.8,-1.66 3.06,-3.62 0.44,-3.35 -2.35,-5.18 -5.42,-5.18l-58.05 0 0.04 -1.82c0.02,-1.09 0.14,-1.96 0.38,-3.01 0.2,-0.87 0.24,-1.61 0.24,-2.51 0,-9.16 -7.6,-16.76 -16.76,-16.76 -3.96,0 -8.02,1.9 -10.98,4.48 -2.79,2.44 -5.16,5.97 -5.16,9.8 0,0.94 -0.01,1.87 -0.04,2.8 -0.01,0.48 -0.03,0.97 -0.01,1.45 0.04,1.08 0.38,2.33 0.62,3.37l0.51 2.19 -28.12 0 0 -34.53c0,-11.1 13.27,-12.65 15.1,-1.34 0.42,2.61 1.07,4.66 4.13,4.78 2.04,0.08 3.55,-0.75 4.37,-2.63 0.97,-2.23 0.64,-5.11 -0.1,-7.35 -1.01,-3.09 -2.99,-5.86 -5.56,-7.85 -3.24,-2.51 -7.14,-3.6 -11.21,-3.6 -8.23,0 -15.52,7.29 -15.52,15.52l0 37 -28.12 0 0.51 -2.19c1.24,-5.3 1.05,-11.03 -2.38,-15.5 -2.74,-3.57 -6.99,-5.56 -11.41,-6.01 -4.43,-0.45 -9.11,0.65 -12.66,3.4 -4.11,3.18 -5.87,7.85 -5.87,12.96 0,0.89 0.05,1.64 0.24,2.51 0.24,1.06 0.35,1.92 0.38,3.01l0.04 1.82 -58.05 0c-1.25,0 -2.68,0.16 -3.68,0.97 -1.27,1.03 -2.31,3.23 -1.81,4.89 0.98,3.24 7.22,3.55 9.82,3.55l1.78 0 0 219.28c0,1 0.6,1.57 1.44,2.03 1.38,0.74 3.31,1.04 4.85,1.18 1.98,0.19 3.99,0.19 5.98,0.12 1.48,-0.05 3,-0.17 4.48,-0.17l1.41 0 0.32 1.38c1.22,5.25 2.18,10.56 3.35,15.82 0.55,2.47 0.95,5.02 1.67,7.45 0.29,0.96 0.82,1.99 1.49,2.75 0.37,0.43 1.03,1.03 1.64,1.03l22.78 0zm147.14 -8.79l-11.67 0 0 -1.78c0,-2.52 -0.68,-5.16 -1.32,-7.58 -0.72,-2.73 -1.53,-5.52 -1.76,-8.34l-0.16 -1.93 22.1 0 -0.51 2.19c-0.66,2.84 -1.33,5.68 -1.9,8.54 -0.28,1.39 -0.49,2.79 -0.78,4.18 -0.19,0.91 -0.25,1.92 -0.62,2.78 -0.63,1.42 -1.89,1.95 -3.38,1.95zm-152 0c-2.25,0 -4.5,0.05 -6.75,0.09 -1.16,0.02 -2.55,0.08 -3.7,-0.11 -2.51,-0.41 -2.83,-2 -3.33,-4.13l-0.01 -0.02 -3.23 -15.45 22.05 0 -0.16 1.93c-0.23,2.82 -1.04,5.61 -1.76,8.34 -0.64,2.42 -1.32,5.06 -1.32,7.58l0 1.78 -1.78 0zm-35.77 -229.16l0 -12.9 213.65 0 0 1.78c0,15.39 0.87,36.55 -12.89,46.73 -2.37,1.75 -4.79,3.28 -7.49,4.47 -2.91,1.28 -5.98,2.12 -9.07,2.81 -3.45,0.77 -6.99,1.27 -10.51,1.61 -3.73,0.36 -7.5,0.54 -11.25,0.54l-111.22 0c-12.28,0 -27.15,-1.1 -37.32,-8.74 -11.36,-8.54 -13.89,-22.9 -13.89,-36.29zm147.06 -30.28c0,-3.57 3.83,-6.36 7.12,-6.77 1.97,-0.24 3.9,0.29 5.31,1.73 1.76,1.8 2.25,4.47 2.25,6.89 0,3.67 -4.02,5.87 -7.28,5.99 -1.86,0.07 -3.71,-0.48 -5.09,-1.76 -1.71,-1.57 -2.31,-3.83 -2.31,-6.08zm-87.81 7.96c-4.16,0 -7.27,-3.16 -7.44,-7.27 -0.18,-4.41 3.05,-7.42 7.44,-7.42 4.3,0 7.32,3.14 7.24,7.37 -0.07,4.09 -3.03,7.31 -7.24,7.31zm-40.85 97.08l0 102.57c0,2.63 2.39,5.02 5.02,5.02l166.83 0c2.63,0 5.02,-2.39 5.02,-5.02l0 -101.95c0,-2.69 -1.35,-5.63 -4.4,-5.63l-168.07 0c-2.41,0 -4.4,2.76 -4.4,5.02zm9.41 4.4l74.62 0 0 93.77 -74.62 0 0 -93.77zm83.41 0l74.62 0 0 93.77 -74.62 0 0 -93.77zm-37.84 40.09c0,2.19 -0.11,4.38 -0.15,6.57 -0.03,1.84 -0.02,3.81 0.3,5.63 0.52,2.96 1.68,4.56 4.86,4.56 1.16,0 2.16,-0.3 2.91,-1.22 0.82,-1.01 1.19,-2.56 1.38,-3.82 0.56,-3.75 0.11,-7.91 0.11,-11.71 0,-1.57 -0.39,-3.2 -1.52,-4.35 -0.84,-0.86 -1.99,-1.33 -3.19,-1.33 -1.2,0 -2.35,0.47 -3.19,1.33 -1.13,1.15 -1.52,2.78 -1.52,4.35zm57.46 0c0,2.19 -0.11,4.38 -0.15,6.57 -0.03,1.84 -0.02,3.81 0.3,5.63 0.52,2.96 1.68,4.56 4.86,4.56 1.16,0 2.16,-0.3 2.91,-1.22 0.82,-1.01 1.19,-2.56 1.38,-3.82 0.56,-3.75 0.11,-7.91 0.11,-11.71 0,-1.57 -0.39,-3.2 -1.52,-4.35 -0.84,-0.86 -1.99,-1.33 -3.19,-1.33 -1.2,0 -2.35,0.47 -3.19,1.33 -1.13,1.15 -1.52,2.78 -1.52,4.35zm-28.42 85.27c0,4.03 4.1,6.38 7.4,3.89 2.81,-2.12 1.41,-8.29 -2.38,-8.29 -2.44,0 -5.02,1.78 -5.02,4.4z"/>
   <path class="fil2" d="M175.34 100.5l-103.61 0c-12.28,0 -27.15,-1.1 -37.32,-8.74 -9.54,-7.17 -12.86,-18.46 -13.67,-29.82l-0.22 0 0 12.9c0,13.39 2.53,27.75 13.89,36.29 10.17,7.65 25.04,8.74 37.32,8.74l104.57 0 3.57 0 3.07 0c0.17,0 0.33,-0 0.5,-0 3.58,-0.02 7.18,-0.2 10.75,-0.54 3.52,-0.34 7.06,-0.84 10.51,-1.61 3.09,-0.69 6.16,-1.53 9.07,-2.81 2.71,-1.19 5.12,-2.71 7.49,-4.47 6.19,-4.58 9.42,-11.38 11.1,-18.87 0.28,-1.26 0.52,-2.53 0.72,-3.82 0.21,-1.36 0.38,-2.73 0.52,-4.11 0.44,-4.42 0.54,-8.89 0.56,-13.14 0.01,-1.71 -0,-3.39 -0.01,-5.01 -0,-0.6 -0,-1.19 -0,-1.78l0 -1.78 -0.35 0c-0.06,0.78 -0.13,1.56 -0.2,2.34 -0.02,0.2 -0.04,0.41 -0.06,0.61 -0.13,1.18 -0.28,2.35 -0.46,3.51 -0.05,0.3 -0.09,0.59 -0.15,0.89 -0.17,0.99 -0.36,1.96 -0.58,2.93 -0.59,2.64 -1.38,5.19 -2.41,7.59 -0.51,1.19 -1.09,2.34 -1.74,3.45 -0.61,1.05 -1.29,2.06 -2.04,3.02 -1.38,1.78 -3.01,3.4 -4.91,4.81 -2.37,1.75 -4.79,3.28 -7.49,4.47 -2.91,1.28 -5.98,2.12 -9.07,2.81 -3.45,0.77 -6.99,1.27 -10.51,1.61 -3.57,0.35 -7.16,0.53 -10.75,0.54 -0.17,0 -0.33,0 -0.5,0l-0.54 0 -2.54 0 -1 0 -2.57 0 -0.97 0z"/>
  </g>
 </g>
</svg>
