<?xml version="1.0" encoding="UTF-8"?>
<!DOCTYPE svg PUBLIC "-//W3C//DTD SVG 1.1//EN" "http://www.w3.org/Graphics/SVG/1.1/DTD/svg11.dtd">
<!-- Creator: CorelDRAW -->
<svg xmlns="http://www.w3.org/2000/svg" xml:space="preserve" width="9.4496in" height="6.6751in" version="1.1" style="shape-rendering:geometricPrecision; text-rendering:geometricPrecision; image-rendering:optimizeQuality; fill-rule:evenodd; clip-rule:evenodd"
viewBox="0 0 535.2 378.06"
 xmlns:xlink="http://www.w3.org/1999/xlink"
 xmlns:xodm="http://www.corel.com/coreldraw/odm/2003">
 <defs>
  <style type="text/css">
   <![CDATA[
    .fil1 {fill:#038F8F;fill-rule:nonzero}
    .fil3 {fill:#ADF5FF;fill-rule:nonzero}
    .fil0 {fill:#ADF5FF;fill-rule:nonzero}
    .fil2 {fill:white;fill-rule:nonzero}
   ]]>
  </style>
 </defs>
 <g id="Layer_x0020_1">
  <metadata id="CorelCorpID_0Corel-Layer"/>
  <g id="_1481268210784">
   <g>
    <path class="fil0" d="M504.63 316.87l-474.3 0 0 -284.97 475.8 0 -1.5 284.97zm25.12 -311.42l-485.41 0c-11.17,0 -20.22,9.06 -20.22,20.22l-0 306.47c0,0.01 0,0.02 0,0.02 0,11.17 9.06,20.22 20.22,20.22 0,0 0,0 0,0l465.19 0c11.17,-0 20.22,-9.06 20.22,-20.23l0 -306.5 -0.01 -20.22z"/>
   </g>
   <path class="fil1" d="M524.31 0c3.01,0 5.45,2.44 5.45,5.45 0,3.01 -2.44,5.45 -5.45,5.45l-498.64 0c-4.08,0 -7.78,1.65 -10.45,4.33 -2.67,2.67 -4.33,6.37 -4.33,10.45l-0.02 0 -0 326.72c0,4.07 1.66,7.76 4.35,10.45 2.67,2.67 6.37,4.33 10.45,4.33l483.86 0c4.08,0 7.78,-1.65 10.45,-4.33 2.67,-2.67 4.33,-6.37 4.33,-10.45l0 -326.72c0,-3.01 2.44,-5.45 5.45,-5.45 3.01,0 5.45,2.44 5.45,5.45l0 326.72c0,7.09 -2.87,13.51 -7.52,18.15 -4.65,4.65 -11.06,7.52 -18.15,7.52l-483.86 0c-7.09,0 -13.51,-2.87 -18.15,-7.52 -4.63,-4.63 -7.5,-11.05 -7.5,-18.15l0 -326.72 -0.02 0c0,-7.09 2.87,-13.51 7.52,-18.15 4.65,-4.65 11.06,-7.52 18.15,-7.52l498.64 0zm-19.67 322.32l-475.86 0c-3.01,0 -5.45,-2.44 -5.45,-5.45l0 -284.97c0,-3.01 2.44,-5.45 5.45,-5.45l477.36 0c3.01,0 5.45,2.44 5.45,5.45 0,0.17 -0.01,0.34 -0.02,0.51l-1.49 284.48c-0.01,2.99 -2.44,5.4 -5.43,5.4l0 0.02zm-470.41 -10.89l465.02 0 1.44 -274.08 -466.45 0 0 274.08z"/>
   <polygon class="fil2" points="28.78,31.9 28.78,316.87 504.63,316.87 506.13,31.9 "/>
   <path class="fil1" d="M34.23 37.34l0 274.08 465.01 0 1.44 -274.08 -466.45 0zm-10.89 279.52l0 -284.97c0,-3.01 2.44,-5.45 5.45,-5.45l477.36 0 0 0.02 0.02 -0c3,0.01 5.42,2.45 5.4,5.45l-1.5 284.49c0.01,0.15 0.02,0.3 0.02,0.45 0,3.01 -2.44,5.45 -5.45,5.45l-475.86 0c-3.01,0 -5.45,-2.44 -5.45,-5.45z"/>
   <rect class="fil3" x="63.01" y="67.68" width="169.58" height="118.24"/>
   <path class="fil1" d="M270.75 61.46l31.1 -0 0 0.02c4.11,0 7.81,1.65 10.48,4.32 2.68,2.68 4.34,6.39 4.34,10.48l0 18.32c0,4.09 -1.66,7.8 -4.34,10.48 -2.68,2.68 -6.39,4.34 -10.48,4.34l-31.1 0c-4.09,0 -7.8,-1.66 -10.48,-4.34 -2.68,-2.68 -4.34,-6.39 -4.34,-10.48l0 -18.32c0,-4.09 1.66,-7.8 4.34,-10.48 2.68,-2.68 6.39,-4.34 10.48,-4.34zm31.1 10.87l0 0.02 -31.1 0c-1.08,0 -2.07,0.44 -2.78,1.15 -0.71,0.71 -1.15,1.69 -1.15,2.78l0 18.32c0,1.08 0.44,2.07 1.15,2.78 0.71,0.71 1.69,1.15 2.78,1.15l31.1 0c1.08,0 2.07,-0.44 2.78,-1.15 0.71,-0.71 1.15,-1.69 1.15,-2.78l0 -18.32c0,-1.08 -0.44,-2.07 -1.15,-2.78 -0.72,-0.72 -1.71,-1.17 -2.78,-1.17z"/>
   <path class="fil1" d="M270.75 122.13l31.1 0c4.09,0 7.8,1.66 10.48,4.34 2.68,2.68 4.34,6.39 4.34,10.48l0 18.32c0,4.09 -1.66,7.8 -4.34,10.48 -2.68,2.68 -6.39,4.34 -10.48,4.34l-31.1 0c-4.09,0 -7.8,-1.66 -10.48,-4.34 -2.68,-2.68 -4.34,-6.39 -4.34,-10.48l0 -18.32c0,-4.09 1.66,-7.8 4.34,-10.48 2.68,-2.68 6.39,-4.34 10.48,-4.34zm31.1 10.89l-31.1 0c-1.08,0 -2.07,0.44 -2.78,1.15 -0.71,0.71 -1.15,1.69 -1.15,2.78l0 18.32c0,1.08 0.44,2.07 1.15,2.78 0.71,0.71 1.69,1.15 2.78,1.15l31.1 0c1.08,0 2.07,-0.44 2.78,-1.15 0.71,-0.71 1.15,-1.69 1.15,-2.78l0 -18.32c0,-1.08 -0.44,-2.07 -1.15,-2.78 -0.71,-0.71 -1.69,-1.15 -2.78,-1.15z"/>
   <path class="fil2" d="M270.75 188.26l31.1 0c5.18,0 9.37,4.2 9.37,9.37l0 18.32c0,5.18 -4.2,9.37 -9.37,9.37l-31.1 0c-5.18,-0 -9.37,-4.2 -9.37,-9.37l-0 -18.32c0,-5.18 4.2,-9.37 9.37,-9.37z"/>
   <path class="fil1" d="M270.75 182.81l31.1 0c4.09,0 7.8,1.66 10.48,4.34 2.68,2.68 4.34,6.39 4.34,10.48l0 18.32c0,4.09 -1.66,7.8 -4.34,10.48 -2.68,2.68 -6.39,4.34 -10.48,4.34l-31.1 0c-4.09,0 -7.8,-1.66 -10.48,-4.34 -2.68,-2.68 -4.34,-6.39 -4.34,-10.48l0 -18.32c0,-4.09 1.66,-7.8 4.34,-10.48 2.68,-2.68 6.39,-4.34 10.48,-4.34zm31.1 10.89l-31.1 0c-1.08,0 -2.07,0.44 -2.78,1.15 -0.71,0.71 -1.15,1.69 -1.15,2.78l0 18.32c0,1.08 0.44,2.07 1.15,2.78 0.71,0.71 1.69,1.15 2.78,1.15l31.1 0c1.08,0 2.07,-0.44 2.78,-1.15 0.71,-0.71 1.15,-1.69 1.15,-2.78l0 -18.32c0,-1.08 -0.44,-2.07 -1.15,-2.78 -0.71,-0.71 -1.69,-1.15 -2.78,-1.15z"/>
   <path class="fil2" d="M340.41 188.89l31.1 0c5.18,0 9.37,4.2 9.37,9.37l0 18.32c-0,5.18 -4.2,9.37 -9.37,9.37l-31.1 0c-5.18,-0 -9.37,-4.2 -9.37,-9.37l0 -18.32c0,-5.18 4.2,-9.37 9.37,-9.37z"/>
   <path class="fil1" d="M340.41 183.44l31.1 0c4.09,0 7.8,1.66 10.48,4.34 2.68,2.68 4.34,6.39 4.34,10.48l-0.02 0 0 18.32c-0,4.11 -1.65,7.81 -4.32,10.48 -2.68,2.68 -6.39,4.34 -10.48,4.34l-31.1 0c-4.09,0 -7.8,-1.66 -10.48,-4.34 -2.68,-2.68 -4.34,-6.39 -4.34,-10.48l0 -18.32c0,-4.09 1.66,-7.8 4.34,-10.48 2.68,-2.68 6.39,-4.34 10.48,-4.34zm31.1 10.89l-31.1 0c-1.08,0 -2.07,0.44 -2.78,1.15 -0.71,0.71 -1.15,1.69 -1.15,2.78l0 18.32c0,1.08 0.44,2.07 1.15,2.78 0.71,0.71 1.69,1.15 2.78,1.15l31.1 0c1.08,0 2.07,-0.44 2.78,-1.15 0.72,-0.72 1.17,-1.71 1.17,-2.78l-0 -18.32 -0.02 0c0,-1.08 -0.44,-2.07 -1.15,-2.78 -0.71,-0.71 -1.69,-1.15 -2.78,-1.15z"/>
   <path class="fil2" d="M410.71 188.89l31.1 0c5.18,0 9.37,4.2 9.37,9.37l0 18.32c-0,5.18 -4.2,9.37 -9.37,9.37l-31.1 0c-5.18,-0 -9.37,-4.2 -9.37,-9.37l0 -18.32c0,-5.18 4.2,-9.37 9.37,-9.37z"/>
   <path class="fil1" d="M410.71 183.44l31.1 0c4.09,0 7.8,1.66 10.48,4.34 2.68,2.68 4.34,6.39 4.34,10.48l0 18.32c0,4.09 -1.66,7.8 -4.34,10.48 -2.68,2.68 -6.39,4.34 -10.48,4.34l-31.1 0c-4.09,0 -7.8,-1.66 -10.48,-4.34 -2.68,-2.68 -4.34,-6.39 -4.34,-10.48l0 -18.32c0,-4.09 1.66,-7.8 4.34,-10.48 2.68,-2.68 6.39,-4.34 10.48,-4.34zm31.1 10.89l-31.1 0c-1.08,0 -2.07,0.44 -2.78,1.15 -0.71,0.71 -1.15,1.69 -1.15,2.78l0 18.32c0,1.08 0.44,2.07 1.15,2.78 0.71,0.71 1.69,1.15 2.78,1.15l31.1 0c1.08,0 2.07,-0.44 2.78,-1.15 0.71,-0.71 1.15,-1.69 1.15,-2.78l0 -18.32c0,-1.08 -0.44,-2.07 -1.15,-2.78 -0.71,-0.71 -1.69,-1.15 -2.78,-1.15z"/>
   <path class="fil2" d="M270.75 248.93l31.1 0c5.18,0 9.37,4.2 9.37,9.37l0 18.32c0,5.18 -4.2,9.37 -9.37,9.37l-31.1 0c-5.18,-0 -9.37,-4.2 -9.37,-9.37l-0 -18.32c0,-5.18 4.2,-9.37 9.37,-9.37z"/>
   <path class="fil1" d="M270.75 243.48l31.1 0c4.09,0 7.8,1.66 10.48,4.34 2.68,2.68 4.34,6.39 4.34,10.48l0 18.32c0,4.09 -1.66,7.8 -4.34,10.48 -2.68,2.68 -6.39,4.34 -10.48,4.34l0 -0.02 -31.1 0c-4.11,-0 -7.81,-1.65 -10.48,-4.32 -2.68,-2.68 -4.34,-6.39 -4.34,-10.48l0 -18.32c0,-4.09 1.66,-7.8 4.34,-10.48 2.68,-2.68 6.39,-4.34 10.48,-4.34zm31.1 10.89l-31.1 0c-1.08,0 -2.07,0.44 -2.78,1.15 -0.71,0.71 -1.15,1.69 -1.15,2.78l0 18.32c0,1.08 0.44,2.07 1.15,2.78 0.72,0.72 1.71,1.17 2.78,1.17l31.1 -0 0 -0.02c1.08,0 2.07,-0.44 2.78,-1.15 0.71,-0.71 1.15,-1.69 1.15,-2.78l0 -18.32c0,-1.08 -0.44,-2.07 -1.15,-2.78 -0.71,-0.71 -1.69,-1.15 -2.78,-1.15z"/>
   <path class="fil2" d="M340.41 249.57l31.1 0c5.18,-0 9.37,4.2 9.37,9.37l0 18.32c-0,5.18 -4.2,9.37 -9.37,9.37l-31.1 0c-5.18,-0 -9.37,-4.2 -9.37,-9.37l0 -18.32c0,-5.18 4.2,-9.37 9.37,-9.37z"/>
   <path class="fil1" d="M340.41 244.12l31.1 0c4.09,0 7.8,1.66 10.48,4.34 2.68,2.68 4.34,6.39 4.34,10.48l-0.02 0 0 18.32c-0,4.11 -1.65,7.81 -4.32,10.48 -2.68,2.68 -6.39,4.34 -10.48,4.34l-31.1 0c-4.09,0 -7.8,-1.66 -10.48,-4.34 -2.68,-2.68 -4.34,-6.39 -4.34,-10.48l0 -18.32c0,-4.09 1.66,-7.8 4.34,-10.48 2.68,-2.68 6.39,-4.34 10.48,-4.34zm31.1 10.89l-31.1 0c-1.08,0 -2.07,0.44 -2.78,1.15 -0.71,0.71 -1.15,1.69 -1.15,2.78l0 18.32c0,1.08 0.44,2.07 1.15,2.78 0.71,0.71 1.69,1.15 2.78,1.15l31.1 0c1.08,0 2.07,-0.44 2.78,-1.15 0.72,-0.72 1.17,-1.71 1.17,-2.78l-0 -18.32 -0.02 0c0,-1.08 -0.44,-2.07 -1.15,-2.78 -0.71,-0.71 -1.69,-1.15 -2.78,-1.15z"/>
   <path class="fil2" d="M410.71 249.57l31.1 0c5.18,-0 9.37,4.2 9.37,9.37l0 18.32c-0,5.18 -4.2,9.37 -9.37,9.37l-31.1 0c-5.18,-0 -9.37,-4.2 -9.37,-9.37l0 -18.32c0,-5.18 4.2,-9.37 9.37,-9.37z"/>
   <path class="fil1" d="M410.71 244.12l31.1 0c4.09,0 7.8,1.66 10.48,4.34 2.68,2.68 4.34,6.39 4.34,10.48l0 18.32c0,4.09 -1.66,7.8 -4.34,10.48 -2.68,2.68 -6.39,4.34 -10.48,4.34l-31.1 0c-4.09,0 -7.8,-1.66 -10.48,-4.34 -2.68,-2.68 -4.34,-6.39 -4.34,-10.48l0 -18.32c0,-4.09 1.66,-7.8 4.34,-10.48 2.68,-2.68 6.39,-4.34 10.48,-4.34zm31.1 10.89l-31.1 0c-1.08,0 -2.07,0.44 -2.78,1.15 -0.71,0.71 -1.15,1.69 -1.15,2.78l0 18.32c0,1.08 0.44,2.07 1.15,2.78 0.71,0.71 1.69,1.15 2.78,1.15l31.1 0c1.08,0 2.07,-0.44 2.78,-1.15 0.71,-0.71 1.15,-1.69 1.15,-2.78l0 -18.32c0,-1.08 -0.44,-2.07 -1.15,-2.78 -0.71,-0.71 -1.69,-1.15 -2.78,-1.15z"/>
   <path class="fil1" d="M92.62 210.03c-2.92,0.02 -5.27,2.25 -5.44,5.17 -0.14,3.14 2.3,5.71 5.44,5.73l46.65 0c2.92,-0.02 5.27,-2.25 5.44,-5.17 0.14,-3.14 -2.3,-5.71 -5.44,-5.73l-46.65 0zm69.98 0c-2.92,0.02 -5.27,2.25 -5.44,5.17 -0.14,3.14 2.3,5.71 5.44,5.73l46.65 0c2.92,-0.02 5.27,-2.25 5.44,-5.17 0.14,-3.14 -2.3,-5.71 -5.44,-5.73l-46.65 0z"/>
   <path class="fil1" d="M63.01 247.37c-2.92,0.02 -5.27,2.25 -5.44,5.17 -0.14,3.14 2.3,5.71 5.44,5.73l169.58 0c2.92,-0.02 5.27,-2.25 5.44,-5.17 0.14,-3.14 -2.3,-5.71 -5.44,-5.73l-169.58 0z"/>
   <path class="fil1" d="M164.14 129.56l-41.61 0 0 21.41c0,3.22 1.3,6.13 3.41,8.23 2.11,2.11 5.02,3.41 8.23,3.41l18.31 0c3.22,0 6.13,-1.3 8.23,-3.41 2.11,-2.11 3.41,-5.02 3.41,-8.23l0 -21.41zm-47.05 -10.89l52.5 0c3.01,0 5.45,2.44 5.45,5.45l0 26.86c0,6.22 -2.52,11.86 -6.6,15.94 -4.08,4.08 -9.71,6.6 -15.94,6.6l-18.31 0c-6.22,0 -11.86,-2.52 -15.94,-6.6 -4.08,-4.08 -6.6,-9.71 -6.6,-15.94l0 -26.86c0,-3.01 2.44,-5.45 5.45,-5.45z"/>
   <path class="fil1" d="M129.43 121.65c0,3.01 -2.44,5.45 -5.45,5.45 -3.01,0 -5.45,-2.44 -5.45,-5.45l0 -17.74c0,-5.59 1.96,-10.69 5.14,-14.43 3.39,-3.99 8.13,-6.46 13.42,-6.46l12.14 0c5.29,0 10.03,2.47 13.41,6.46 3.17,3.74 5.14,8.85 5.14,14.43 0,3.01 -2.44,5.45 -5.45,5.45 -3.01,0 -5.45,-2.44 -5.45,-5.45 0,-2.94 -0.97,-5.56 -2.54,-7.41 -1.36,-1.6 -3.17,-2.59 -5.12,-2.59l-12.14 0c-1.95,0 -3.76,0.99 -5.12,2.59 -1.57,1.85 -2.54,4.47 -2.54,7.41l0 17.74z"/>
   <path class="fil1" d="M147.92 147.33c0,3.01 -2.44,5.45 -5.45,5.45 -3.01,0 -5.45,-2.44 -5.45,-5.45l0 -3.74c0,-3.01 2.44,-5.45 5.45,-5.45 3.01,0 5.45,2.44 5.45,5.45l0 3.74z"/>
   <path class="fil2" d="M340.41 67.57l31.1 0c5.18,0 9.37,4.2 9.37,9.37l0 18.32c-0,5.18 -4.2,9.37 -9.37,9.37l-31.1 0c-5.18,-0 -9.37,-4.2 -9.37,-9.37l0 -18.32c0,-5.18 4.2,-9.37 9.37,-9.37z"/>
   <path class="fil1" d="M340.41 62.12l31.1 0c4.09,0 7.8,1.66 10.48,4.34 2.68,2.68 4.34,6.39 4.34,10.48l-0.02 0 0 18.32c-0,4.11 -1.65,7.81 -4.32,10.48 -2.68,2.68 -6.39,4.34 -10.48,4.34l-31.1 0c-4.09,0 -7.8,-1.66 -10.48,-4.34 -2.68,-2.68 -4.34,-6.39 -4.34,-10.48l0 -18.32c0,-4.09 1.66,-7.8 4.34,-10.48 2.68,-2.68 6.39,-4.34 10.48,-4.34zm31.1 10.89l-31.1 0c-1.08,0 -2.07,0.44 -2.78,1.15 -0.71,0.71 -1.15,1.69 -1.15,2.78l0 18.32c0,1.08 0.44,2.07 1.15,2.78 0.71,0.71 1.69,1.15 2.78,1.15l31.1 0c1.08,0 2.07,-0.44 2.78,-1.15 0.72,-0.72 1.17,-1.71 1.17,-2.78l-0 -18.32 -0.02 0c0,-1.08 -0.44,-2.07 -1.15,-2.78 -0.71,-0.71 -1.69,-1.15 -2.78,-1.15z"/>
   <path class="fil2" d="M410.71 67.57l31.1 0c5.18,0 9.37,4.2 9.37,9.37l0 18.32c-0,5.18 -4.2,9.37 -9.37,9.37l-31.1 0c-5.18,-0 -9.37,-4.2 -9.37,-9.37l0 -18.32c0,-5.18 4.2,-9.37 9.37,-9.37z"/>
   <path class="fil1" d="M410.71 62.12l31.1 0c4.09,0 7.8,1.66 10.48,4.34 2.68,2.68 4.34,6.39 4.34,10.48l0 18.32c0,4.09 -1.66,7.8 -4.34,10.48 -2.68,2.68 -6.39,4.34 -10.48,4.34l-31.1 0c-4.09,0 -7.8,-1.66 -10.48,-4.34 -2.68,-2.68 -4.34,-6.39 -4.34,-10.48l0 -18.32c0,-4.09 1.66,-7.8 4.34,-10.48 2.68,-2.68 6.39,-4.34 10.48,-4.34zm31.1 10.89l-31.1 0c-1.08,0 -2.07,0.44 -2.78,1.15 -0.71,0.71 -1.15,1.69 -1.15,2.78l0 18.32c0,1.08 0.44,2.07 1.15,2.78 0.71,0.71 1.69,1.15 2.78,1.15l31.1 0c1.08,0 2.07,-0.44 2.78,-1.15 0.71,-0.71 1.15,-1.69 1.15,-2.78l0 -18.32c0,-1.08 -0.44,-2.07 -1.15,-2.78 -0.71,-0.71 -1.69,-1.15 -2.78,-1.15z"/>
   <path class="fil2" d="M340.41 128.25l31.1 0c5.18,-0 9.37,4.2 9.37,9.37l0 18.32c-0,5.18 -4.2,9.37 -9.37,9.37l-31.1 0c-5.18,-0 -9.37,-4.2 -9.37,-9.37l0 -18.32c0,-5.18 4.2,-9.37 9.37,-9.37z"/>
   <path class="fil1" d="M340.41 122.8l31.1 0c4.09,0 7.8,1.66 10.48,4.34 2.68,2.68 4.34,6.39 4.34,10.48l-0.02 0 0 18.32c-0,4.11 -1.65,7.81 -4.32,10.48 -2.68,2.68 -6.39,4.34 -10.48,4.34l-31.1 0c-4.09,0 -7.8,-1.66 -10.48,-4.34 -2.68,-2.68 -4.34,-6.39 -4.34,-10.48l0 -18.32c0,-4.09 1.66,-7.8 4.34,-10.48 2.68,-2.68 6.39,-4.34 10.48,-4.34zm31.1 10.89l-31.1 0c-1.08,0 -2.07,0.44 -2.78,1.15 -0.71,0.71 -1.15,1.69 -1.15,2.78l0 18.32c0,1.08 0.44,2.07 1.15,2.78 0.71,0.71 1.69,1.15 2.78,1.15l31.1 0c1.08,0 2.07,-0.44 2.78,-1.15 0.72,-0.72 1.17,-1.71 1.17,-2.78l-0 -18.32 -0.02 0c0,-1.08 -0.44,-2.07 -1.15,-2.78 -0.71,-0.71 -1.69,-1.15 -2.78,-1.15z"/>
   <path class="fil2" d="M410.71 128.25l31.1 0c5.18,-0 9.37,4.2 9.37,9.37l0 18.32c-0,5.18 -4.2,9.37 -9.37,9.37l-31.1 0c-5.18,-0 -9.37,-4.2 -9.37,-9.37l0 -18.32c0,-5.18 4.2,-9.37 9.37,-9.37z"/>
   <path class="fil1" d="M410.71 122.8l31.1 0c4.09,0 7.8,1.66 10.48,4.34 2.68,2.68 4.34,6.39 4.34,10.48l0 18.32c0,4.09 -1.66,7.8 -4.34,10.48 -2.68,2.68 -6.39,4.34 -10.48,4.34l-31.1 0c-4.09,0 -7.8,-1.66 -10.48,-4.34 -2.68,-2.68 -4.34,-6.39 -4.34,-10.48l0 -18.32c0,-4.09 1.66,-7.8 4.34,-10.48 2.68,-2.68 6.39,-4.34 10.48,-4.34zm31.1 10.89l-31.1 0c-1.08,0 -2.07,0.44 -2.78,1.15 -0.71,0.71 -1.15,1.69 -1.15,2.78l0 18.32c0,1.08 0.44,2.07 1.15,2.78 0.71,0.71 1.69,1.15 2.78,1.15l31.1 0c1.08,0 2.07,-0.44 2.78,-1.15 0.71,-0.71 1.15,-1.69 1.15,-2.78l0 -18.32c0,-1.08 -0.44,-2.07 -1.15,-2.78 -0.71,-0.71 -1.69,-1.15 -2.78,-1.15z"/>
  </g>
 </g>
</svg>
