<?xml version="1.0" encoding="UTF-8"?>
<!DOCTYPE svg PUBLIC "-//W3C//DTD SVG 1.1//EN" "http://www.w3.org/Graphics/SVG/1.1/DTD/svg11.dtd">
<!-- Creator: CorelDRAW -->
<svg xmlns="http://www.w3.org/2000/svg" xml:space="preserve" width="6.98895in" height="6.98895in" version="1.1" style="shape-rendering:geometricPrecision; text-rendering:geometricPrecision; image-rendering:optimizeQuality; fill-rule:evenodd; clip-rule:evenodd"
viewBox="0 0 508.51 508.51"
 xmlns:xlink="http://www.w3.org/1999/xlink"
 xmlns:xodm="http://www.corel.com/coreldraw/odm/2003">
 <defs>
  <style type="text/css">
   <![CDATA[
    .fil1 {fill:#038F8F}
    .fil2 {fill:#ADF5FF}
    .fil3 {fill:white}
    .fil0 {fill:white}
   ]]>
  </style>
 </defs>
 <g id="Layer_x0020_1">
  <metadata id="CorelCorpID_0Corel-Layer"/>
  <g id="_1481181588880">
   <rect class="fil0" x="5.66" y="5.58" width="493.24" height="495.36" rx="34.63" ry="34.17"/>
   <g>
    <path class="fil1" d="M76.28 423.76l355.96 0 0 16.95 -355.96 0 0 -16.95zm76.28 -42.38l0 -8.48 203.41 0 0 8.48 0 25.43 -203.41 0 0 -25.43zm-11.38 -41.51c4.79,-2.3 110.78,-0.88 125.8,-0.88 26.35,0 70.53,-0.96 95.42,-0.04 12.55,0.46 13.19,12.68 5.42,16.11 -1.64,0.72 -190.23,2.11 -221.68,0.92 -11.36,-0.43 -14.47,-11.56 -4.96,-16.12zm38.29 -18.26c16.82,-18.49 44.98,-16.52 74.8,-16.52 12.92,0 33.53,-1.2 45.38,1.14 9.82,1.94 16.6,5.44 24.2,10.85 2.61,1.86 3.17,2.99 5.25,4.95l-149.63 -0.43zm-63.72 -168.21c4.22,-2.02 224.56,-0.67 265.65,-0.89 6.36,-0.03 12.42,-0.42 15.33,3.8 3.34,4.85 0.52,10.53 -3.48,12.3 -4.58,2.03 -224.65,0.68 -266.12,0.89 -24.73,0.13 -17.21,-13.32 -11.39,-16.11zm-39.46 -0.87l18.26 0c-3.74,21.11 6.46,33.9 27.29,33.9l264.85 0c20.89,0 30.93,-12.8 27.28,-33.9l18.28 0 -0.14 254.27 -59.2 0 0 -31.79c0,-7.22 7.53,-3.77 13.62,-15 3.24,-5.97 4.4,-14.28 1.69,-21.47 -5.96,-15.81 -17.33,-16.5 -37.02,-16.5 -9.71,-17.51 -34.05,-33.9 -65.15,-33.9l-63.56 0c-31.32,0 -55.05,16.49 -65.16,33.9 -19.69,0 -31.06,0.69 -37.02,16.49 -2.72,7.2 -1.53,15.52 1.7,21.48 4.87,8.98 11.36,8.68 13.62,12.88l-0.54 33.91 -58.8 0 0.01 -254.27zm-11.38 -16.06c-7.06,3.4 -5.6,8.33 -5.57,17.12l-0.02 289.24c-0.12,19.88 11.43,14.8 29.68,14.8 35.22,0 349.64,1.53 355.09,-0.89 7.68,-3.41 5.1,-26.39 5.1,-39.36l0.02 -266.99c0.12,-19.88 -11.42,-14.8 -29.68,-14.8 -35.05,0 -349.7,-1.49 -354.62,0.88z"/>
    <path class="fil1" d="M16.95 118.65l474.62 0 0 357.03c0,11.49 -4.4,15.9 -15.9,15.9l-442.83 0c-11.51,0 -15.9,-4.39 -15.9,-15.9l0.01 -357.03zm-0.01 -16.93c0,-91.55 -8.49,-84.77 36.03,-84.77 134.19,0 268.38,0 402.57,0 44.41,0 36.1,-6.86 36.02,84.77l-474.62 0zm-16.94 -75.23l0 455.54c0,12.42 14.07,26.49 26.49,26.49l453.42 0c14.15,0 28.6,-12.84 28.6,-26.49l0 -455.54c0,-12.42 -14.07,-26.49 -26.48,-26.49l-455.54 0c-12.42,0 -26.49,14.07 -26.49,26.49z"/>
    <path class="fil2" d="M68.86 101.71l422.78 0c0.07,-81.63 7.48,-75.51 -32.08,-75.51 -119.53,0 -239.06,0 -358.6,0 -39.66,0 -32.09,-6.04 -32.09,75.51z"/>
    <polygon class="fil2" points="76.28,440.71 432.24,440.71 432.24,423.76 76.28,423.76 "/>
    <path class="fil2" d="M115.74 153.42c-5.82,2.79 -13.34,16.24 11.39,16.11 41.47,-0.22 261.54,1.13 266.12,-0.89 4,-1.77 6.82,-7.45 3.48,-12.3 -2.91,-4.22 -8.97,-3.84 -15.33,-3.8 -41.1,0.22 -261.44,-1.13 -265.65,0.89z"/>
    <path class="fil2" d="M179.46 321.62l149.63 0.43c-2.08,-1.97 -2.64,-3.1 -5.25,-4.95 -7.6,-5.42 -14.38,-8.92 -24.2,-10.85 -11.85,-2.34 -32.46,-1.14 -45.38,-1.14 -29.81,0 -57.97,-1.97 -74.8,16.52z"/>
    <path class="fil1" d="M161.33 61.45c-2.57,-11.66 14.33,-13.82 16.34,-3.87 2.26,11.2 -14.27,13.3 -16.34,3.87zm32.96 3.18c3.5,-15.19 -7.29,-27.45 -19.09,-30.08 -15.72,-3.51 -27.67,7.16 -30.38,19.05 -7.45,32.77 41.83,44.19 49.47,11.03z"/>
    <path class="fil1" d="M246.08 61.45c-2.57,-11.66 14.33,-13.82 16.34,-3.87 2.26,11.2 -14.27,13.3 -16.34,3.87zm32.96 3.18c3.5,-15.19 -7.29,-27.45 -19.09,-30.08 -15.72,-3.51 -27.67,7.16 -30.38,19.05 -7.45,32.77 41.83,44.19 49.47,11.03z"/>
    <path class="fil1" d="M330.83 61.45c-2.57,-11.66 14.33,-13.82 16.35,-3.87 2.26,11.2 -14.27,13.3 -16.35,3.87zm32.96 3.18c3.5,-15.19 -7.29,-27.45 -19.09,-30.08 -15.72,-3.51 -27.67,7.16 -30.38,19.05 -7.45,32.77 41.83,44.19 49.47,11.03z"/>
    <path class="fil1" d="M209.98 201.02c-9.31,2.53 -4.57,8.41 -9.33,16.55 -3.89,6.64 -6.25,11.47 -5.6,20.77 0.72,10.39 4.9,12.25 7.34,19.07 1.95,5.45 1.43,16.61 12.08,13.28 6.87,-2.15 6.71,-10.83 4.32,-18.01 -2.36,-7.1 -8.03,-10.94 -6.6,-19.33 1.08,-6.35 6.25,-9.86 7.72,-18.65 1.37,-8.21 -1.32,-16.01 -9.92,-13.68z"/>
    <path class="fil1" d="M303.21 201.02c-9.31,2.53 -4.57,8.41 -9.33,16.55 -3.89,6.64 -6.25,11.47 -5.6,20.77 0.72,10.39 4.9,12.25 7.34,19.07 1.95,5.45 1.43,16.61 12.08,13.28 6.87,-2.15 6.71,-10.83 4.32,-18.01 -2.36,-7.1 -8.03,-10.94 -6.6,-19.33 1.08,-6.35 6.25,-9.86 7.72,-18.65 1.37,-8.21 -1.32,-16.01 -9.92,-13.68z"/>
    <path class="fil1" d="M256.59 201.02c-9.31,2.53 -4.57,8.41 -9.33,16.55 -12.78,21.86 -1.31,31.31 1.74,39.84 1.95,5.45 1.43,16.61 12.08,13.28 6.87,-2.15 6.71,-10.83 4.32,-18.01 -2.36,-7.1 -8.03,-10.94 -6.6,-19.33 1.08,-6.35 6.25,-9.86 7.72,-18.65 1.37,-8.21 -1.32,-16.01 -9.92,-13.68z"/>
    <path class="fil3" d="M161.33 61.45c2.08,9.43 18.61,7.33 16.34,-3.87 -2.01,-9.95 -18.91,-7.79 -16.34,3.87z"/>
    <path class="fil3" d="M246.08 61.45c2.08,9.43 18.61,7.33 16.34,-3.87 -2.01,-9.95 -18.92,-7.79 -16.34,3.87z"/>
    <path class="fil3" d="M330.83 61.45c2.08,9.43 18.61,7.33 16.35,-3.87 -2.01,-9.95 -18.92,-7.79 -16.35,3.87z"/>
   </g>
  </g>
 </g>
</svg>
