<?xml version="1.0" encoding="UTF-8"?>
<!DOCTYPE svg PUBLIC "-//W3C//DTD SVG 1.1//EN" "http://www.w3.org/Graphics/SVG/1.1/DTD/svg11.dtd">
<!-- Creator: CorelDRAW -->
<svg xmlns="http://www.w3.org/2000/svg" xml:space="preserve" width="8.31582in" height="6.45907in" version="1.1" style="shape-rendering:geometricPrecision; text-rendering:geometricPrecision; image-rendering:optimizeQuality; fill-rule:evenodd; clip-rule:evenodd"
viewBox="0 0 1634.95 1269.9"
 xmlns:xlink="http://www.w3.org/1999/xlink"
 xmlns:xodm="http://www.corel.com/coreldraw/odm/2003">
 <defs>
  <style type="text/css">
   <![CDATA[
    .fil0 {fill:#038F8F;fill-rule:nonzero}
    .fil1 {fill:#ADF5FF;fill-rule:nonzero}
    .fil2 {fill:white;fill-rule:nonzero}
   ]]>
  </style>
 </defs>
 <g id="Layer_x0020_1">
  <metadata id="CorelCorpID_0Corel-Layer"/>
  <g id="_1481275588992">
   <path class="fil0" d="M1615.21 1162.78c10.9,0 19.74,8.84 19.74,19.74 0,10.9 -8.84,19.74 -19.74,19.74l-1595.48 0c-10.9,0 -19.74,-8.84 -19.74,-19.74 0,-10.9 8.84,-19.74 19.74,-19.74l1595.48 0z"/>
   <path class="fil0" d="M19.74 852.71c-10.9,0 -19.74,-8.84 -19.74,-19.74 0,-10.9 8.84,-19.74 19.74,-19.74l1595.48 0c10.9,0 19.74,8.84 19.74,19.74 0,10.9 -8.84,19.74 -19.74,19.74l-1595.48 0z"/>
   <path class="fil0" d="M589.13 842.31l0 -435c0,-10.9 8.84,-19.74 19.74,-19.74l349.54 0c10.9,0 19.74,8.84 19.74,19.74l0 435c0,5.51 -2.26,10.49 -5.9,14.07 -9.49,10.3 -54.64,49.89 -188.61,49.89 -153.8,0 -190.54,-52.17 -190.65,-52.32 -2.57,-3.51 -3.81,-7.6 -3.81,-11.64l-0.05 0zm39.47 -415.26l0 407.53c10.92,9.35 48.5,32.21 155.03,32.21 106.53,0 144.11,-22.86 155.04,-32.21l0 -407.53 -310.07 0z"/>
   <rect class="fil1" x="28.19" y="920.35" width="1587.03" height="262.15"/>
   <path class="fil0" d="M1615.21 1162.78c10.9,0 19.74,8.84 19.74,19.74 0,10.9 -8.84,19.74 -19.74,19.74l-1595.48 0c-10.9,0 -19.74,-8.84 -19.74,-19.74 0,-10.9 8.84,-19.74 19.74,-19.74l1595.48 0z"/>
   <path class="fil0" d="M47.91 852.71c-10.9,0 -19.74,-8.84 -19.74,-19.74 0,-10.9 8.84,-19.74 19.74,-19.74l1567.3 0c10.9,0 19.74,8.84 19.74,19.74 0,10.9 -8.84,19.74 -19.74,19.74l-1567.3 0z"/>
   <path class="fil2" d="M346.72 759.68l0 0c40.47,-0 73.29,32.82 73.29,73.29l-0 343.9c0,40.47 -32.82,73.29 -73.29,73.29l-0 0c-40.47,-0 -73.29,-32.82 -73.29,-73.29l-0 -343.9c0,-40.47 32.82,-73.29 73.29,-73.29z"/>
   <path class="fil0" d="M346.72 739.95c25.68,0 48.94,10.41 65.77,27.25 16.83,16.83 27.25,40.09 27.25,65.77l0 343.91c0,25.68 -10.41,48.94 -27.25,65.77 -16.83,16.83 -40.09,27.25 -65.77,27.25 -25.68,0 -48.94,-10.42 -65.78,-27.25 -16.84,-16.84 -27.25,-40.09 -27.25,-65.77l0 -343.9c0,-25.68 10.42,-48.94 27.25,-65.78 16.84,-16.84 40.09,-27.25 65.78,-27.25zm37.87 55.16c-9.69,-9.69 -23.08,-15.69 -37.87,-15.69 -14.79,0 -28.18,6 -37.87,15.69 -9.69,9.69 -15.69,23.08 -15.69,37.87l0 343.9c0,14.78 6,28.17 15.69,37.86 9.69,9.69 23.08,15.69 37.87,15.69 14.79,0 28.17,-5.99 37.86,-15.68 9.69,-9.69 15.69,-23.08 15.69,-37.86l0 -343.91c0,-14.79 -6,-28.17 -15.69,-37.86z"/>
   <path class="fil2" d="M1237.49 1250.16l0 0c-40.47,-0 -73.29,-32.82 -73.29,-73.29l0 -343.9c0,-40.47 32.82,-73.29 73.29,-73.29l0 0c40.47,-0 73.29,32.82 73.29,73.29l0 343.9c0,40.47 -32.82,73.29 -73.29,73.29l0 0z"/>
   <path class="fil0" d="M1237.5 1269.9c-25.68,0 -48.94,-10.42 -65.78,-27.25 -16.84,-16.84 -27.25,-40.09 -27.25,-65.77l0 -343.9c0,-25.68 10.42,-48.94 27.25,-65.78 16.84,-16.84 40.09,-27.25 65.78,-27.25 25.68,0 48.94,10.41 65.77,27.25 16.83,16.83 27.25,40.09 27.25,65.77l0 343.91c0,25.68 -10.41,48.94 -27.25,65.77 -16.83,16.83 -40.09,27.25 -65.77,27.25zm-37.87 -55.16c9.69,9.69 23.08,15.69 37.87,15.69 14.79,0 28.17,-5.99 37.86,-15.68 9.69,-9.69 15.69,-23.08 15.69,-37.86l0 -343.91c0,-14.79 -6,-28.17 -15.69,-37.86 -9.69,-9.69 -23.08,-15.69 -37.87,-15.69 -14.79,0 -28.18,6 -37.87,15.69 -9.69,9.69 -15.69,23.08 -15.69,37.87l0 343.9c0,14.78 6,28.17 15.69,37.86z"/>
   <path class="fil2" d="M608.87 842.31l0 -434.99 349.54 0 0 434.99c0,0 -31.01,44.23 -174.77,44.23 -143.77,0 -174.77,-44.23 -174.77,-44.23z"/>
   <path class="fil0" d="M589.13 842.31l0 -435c0,-10.9 8.84,-19.74 19.74,-19.74l349.54 0c10.9,0 19.74,8.84 19.74,19.74l0 435c0,5.51 -2.26,10.49 -5.9,14.07 -9.49,10.3 -54.64,49.89 -188.61,49.89 -153.8,0 -190.54,-52.17 -190.65,-52.32 -2.57,-3.51 -3.81,-7.6 -3.81,-11.64l-0.05 0zm39.47 -415.26l0 407.53c10.92,9.35 48.5,32.21 155.03,32.21 106.53,0 144.11,-22.86 155.04,-32.21l0 -407.53 -310.07 0z"/>
   <path class="fil1" d="M687.8 842.31l0 -434.99 270.62 0 0 434.99c0,0 -24.01,44.23 -135.3,44.23 -111.29,0 -135.32,-44.23 -135.32,-44.23z"/>
   <path class="fil0" d="M586.32 839.48l0 -434.97c0,-10.9 8.84,-19.74 19.74,-19.74l349.54 0c10.9,0 19.74,8.84 19.74,19.74l0 434.99c0,5.51 -2.26,10.49 -5.9,14.07 -9.49,10.31 -54.63,49.89 -188.61,49.89 -153.8,0 -190.54,-52.19 -190.65,-52.34 -2.57,-3.51 -3.81,-7.6 -3.81,-11.64l-0.05 0zm39.47 -415.24l0 407.51c10.92,9.36 48.51,32.23 155.04,32.23 106.53,0 144.11,-22.86 155.04,-32.21l0 -407.53 -310.07 0z"/>
   <rect class="fil2" x="684.99" y="203.48" width="197.33" height="127.72"/>
   <path class="fil0" d="M704.73 311.46l157.85 0 0 -88.24 -157.85 0 0 88.24zm177.59 39.47l-197.32 0c-10.9,0 -19.74,-8.84 -19.74,-19.74l0 -127.72c0,-10.9 8.84,-19.74 19.74,-19.74l197.32 0c10.9,0 19.74,8.84 19.74,19.74l0 127.72c0,10.9 -8.84,19.74 -19.74,19.74z"/>
   <path class="fil0" d="M1099.36 98.56c0,-10.9 8.84,-19.74 19.74,-19.74 10.9,0 19.74,8.84 19.74,19.74l0 27.91c0,26.84 -12.85,50.96 -33.63,68.24 -19.78,16.45 -46.82,26.63 -76.43,26.63 -0.67,0 -1.33,-0.03 -1.98,-0.1l-477.34 -5.64 0 0.08c-32.64,0 -62.42,-11.2 -84.18,-29.3 -22.76,-18.93 -36.83,-45.32 -36.83,-74.68l0 -7.64c0,-4.78 0.43,-9.7 1.25,-14.71 4.29,-26.16 19.67,-48.82 41.62,-64.79 21.11,-15.36 48.44,-24.58 77.62,-24.58 7.26,0 14.85,0.62 22.72,1.91 9.25,1.51 14.89,2.47 20.71,3.45 50.35,8.5 110.43,18.65 187.88,18.65l0 0.08 3.43 0 0 -0.08c104.56,0 162.31,-9.25 263.96,-21.92 10.81,-1.32 20.65,6.38 21.97,17.19 1.32,10.81 -6.38,20.65 -17.19,21.97 -102.93,12.82 -162.93,22.23 -268.74,22.23l0 -0.08 -3.43 -0 0 0.08c-80.27,0 -142.34,-10.48 -194.36,-19.26 -8.3,-1.4 -16.41,-2.77 -20.56,-3.45 -5.32,-0.87 -10.8,-1.29 -16.39,-1.29 -20.7,0 -39.87,6.38 -54.49,17.02 -13.78,10.03 -23.36,23.76 -25.89,39.19 -0.41,2.53 -0.63,5.32 -0.63,8.38l0 7.64c0,17.17 8.6,32.9 22.49,44.46 14.89,12.39 35.75,20.05 59.05,20.05l0 0.08 477.8 5.64c0.5,-0.04 1,-0.06 1.51,-0.06 20.27,0 38.39,-6.64 51.3,-17.38 11.92,-9.91 19.29,-23.37 19.29,-38.02l0 -27.91z"/>
   <path class="fil2" d="M1028.89 407.31l0 0c-0,40.47 -32.82,73.29 -73.29,73.29l-343.9 -0c-40.47,0 -73.29,-32.82 -73.29,-73.29l-0 -0c0,-40.47 32.82,-73.29 73.29,-73.29l343.9 -0c40.47,0 73.29,32.82 73.29,73.29z"/>
   <path class="fil0" d="M1048.63 407.31c0,25.68 -10.42,48.94 -27.25,65.78 -16.83,16.84 -40.09,27.25 -65.78,27.25l0 -0.08 -343.9 -0 0 0.08c-25.68,0 -48.94,-10.41 -65.77,-27.25 -16.79,-16.79 -27.17,-40.04 -27.17,-65.77l-0.08 0c0,-25.69 10.42,-48.95 27.25,-65.78 16.84,-16.84 40.09,-27.25 65.78,-27.25l343.9 0c25.68,0 48.94,10.41 65.77,27.25 16.83,16.83 27.25,40.09 27.25,65.77zm-55.16 37.87c9.69,-9.69 15.69,-23.08 15.69,-37.87 0,-14.79 -6,-28.17 -15.69,-37.86 -9.69,-9.69 -23.08,-15.69 -37.86,-15.69l-343.9 0c-14.79,0 -28.18,6 -37.87,15.69 -9.69,9.69 -15.69,23.08 -15.69,37.86l-0.08 0.01c0,14.73 6.03,28.12 15.76,37.86 9.69,9.69 23.08,15.68 37.86,15.68l0.01 0.08 343.9 0 0 -0.08c14.79,0 28.18,-6 37.87,-15.69z"/>
  </g>
 </g>
</svg>
