<?xml version="1.0" encoding="UTF-8"?>
<!DOCTYPE svg PUBLIC "-//W3C//DTD SVG 1.1//EN" "http://www.w3.org/Graphics/SVG/1.1/DTD/svg11.dtd">
<!-- Creator: CorelDRAW -->
<svg xmlns="http://www.w3.org/2000/svg" xml:space="preserve" width="5.35385in" height="9.05507in" version="1.1" style="shape-rendering:geometricPrecision; text-rendering:geometricPrecision; image-rendering:optimizeQuality; fill-rule:evenodd; clip-rule:evenodd"
viewBox="0 0 250.83 424.24"
 xmlns:xlink="http://www.w3.org/1999/xlink"
 xmlns:xodm="http://www.corel.com/coreldraw/odm/2003">
 <defs>
  <style type="text/css">
   <![CDATA[
    .fil2 {fill:#038F8F}
    .fil1 {fill:#ADF5FF}
    .fil0 {fill:white}
   ]]>
  </style>
 </defs>
 <g id="Layer_x0020_1">
  <metadata id="CorelCorpID_0Corel-Layer"/>
  <g id="_1481271955600">
   <path class="fil0" d="M26.58 155.78l191.7 0c15.28,0 27.79,-7.77 27.79,-17.26l0 -112.49c0,-9.49 -12.5,-17.26 -27.79,-17.26l-196.05 0c-7.94,0 -15.97,4.59 -15.97,9.51l0 127.98c0,5.7 10.4,9.51 20.33,9.51z"/>
   <path class="fil1" d="M18.88 155.78l119.04 0c9.49,0 17.26,-7.77 17.26,-17.26l0 -112.49c0,-9.49 -7.77,-17.26 -17.26,-17.26l-121.75 0c-4.93,0 -9.92,4.59 -9.92,9.51l0 127.98c0,5.7 6.46,9.51 12.63,9.51z"/>
   <path class="fil0" d="M216.37 161.51l-189.22 0c-9.9,0 -20.28,3.79 -20.28,9.47l0 213.57c0,4.89 7.97,9.45 15.88,9.47 0.02,0 0.04,0 0.05,0l193.57 0c16.34,0 29.7,-8.29 29.7,-18.42l0 -195.68c0,-10.13 -13.37,-18.42 -29.7,-18.42z"/>
   <path class="fil1" d="M136.76 161.51l-117.33 0c-6.14,0 -12.57,3.79 -12.57,9.47l0 213.57c0,4.89 4.94,9.45 9.84,9.47 0.01,0 0.02,0 0.03,0l120.02 0c10.13,0 18.42,-8.29 18.42,-18.42l0 -195.68c0,-10.13 -8.29,-18.42 -18.42,-18.42z"/>
   <path class="fil2" d="M193.31 196.07l13.27 0 0 62.18 -13.27 0 0 -62.18zm-9.4 -1.5l0 65.19c0,1.53 0.12,3.73 1.14,4.98 0.91,1.12 2.6,1.49 3.96,1.68 1.28,0.18 2.61,0.23 3.9,0.24 1.74,0.02 3.48,-0.02 5.21,-0.07 4.82,-0.14 9.63,-0.31 14.45,-0.31 0.88,0 1.71,-0.8 2.2,-1.45 0.69,-0.94 1.2,-2.22 1.2,-3.39l0 -68.53c0,-1.17 -0.5,-2.46 -1.2,-3.4 -0.49,-0.66 -1.32,-1.45 -2.2,-1.45 -4.83,0 -9.63,-0.17 -14.45,-0.31 -1.73,-0.05 -3.48,-0.09 -5.21,-0.07 -1.29,0.02 -2.62,0.07 -3.9,0.24 -1.36,0.19 -3.04,0.55 -3.96,1.68 -1.02,1.25 -1.14,3.45 -1.14,4.98z"/>
   <polygon class="fil2" points="180.23,400.84 215.29,400.84 215.29,416.21 180.23,416.21 "/>
   <polygon class="fil2" points="35.55,400.84 70.6,400.84 70.6,416.21 35.55,416.21 "/>
   <path class="fil2" d="M206.01 154.62l-182.57 0c-3.27,0 -6.7,-0.99 -9.39,-2.86 -2.75,-1.92 -4.65,-4.75 -4.65,-8.17l0 -123.69c0,-5.83 5.7,-11.03 11.43,-11.03l213.9 0c1.21,0 2.26,-0.43 3.11,-1.29 0.86,-0.86 1.29,-1.9 1.28,-3.11l-0 -0.07c-0.01,-2.42 -1.98,-4.38 -4.39,-4.38l-212.16 0c-12.17,0 -22.57,9.14 -22.57,21.56l0 120.35c0,3.2 0.51,5.91 2.1,8.7 0.65,1.13 1.41,2.2 2.16,3.27 0.88,1.26 1.74,2.51 2.48,3.86l0.49 0.89 -0.49 0.89c-0.74,1.35 -1.6,2.6 -2.48,3.86 -0.75,1.07 -1.51,2.13 -2.16,3.27 -1.59,2.79 -2.1,5.5 -2.1,8.7l0 203.93c0,6.12 2.19,11.65 6.86,15.65 5.03,4.3 11.82,5.91 18.32,5.91l1.84 0 0 1.84c0,3.21 -0.14,6.41 -0.25,9.61 -0.08,2.32 -0.17,4.82 0.09,7.12 0.13,1.2 0.42,2.82 1.25,3.76 0.79,0.89 2.05,1.07 3.18,1.07l43.58 0c1.13,0 2.39,-0.17 3.18,-1.07 0.83,-0.94 1.12,-2.56 1.25,-3.76 0.26,-2.31 0.16,-4.8 0.09,-7.12 -0.11,-3.21 -0.25,-6.4 -0.25,-9.61l0 -1.84 92.58 0 0 1.84c0,3.21 -0.14,6.41 -0.25,9.61 -0.08,2.32 -0.17,4.82 0.09,7.12 0.13,1.2 0.42,2.82 1.25,3.76 0.79,0.89 2.05,1.07 3.18,1.07l43.58 0c1.13,0 2.39,-0.17 3.18,-1.07 0.83,-0.94 1.11,-2.56 1.25,-3.76 0.26,-2.31 0.16,-4.8 0.09,-7.12 -0.11,-3.21 -0.25,-6.4 -0.25,-9.61l0 -1.84 1.84 0c6.49,0 13.29,-1.61 18.32,-5.91 4.68,-4 6.86,-9.54 6.86,-15.65l0 -137.14c0,-2.51 -2.05,-4.56 -4.56,-4.56l-0.21 0c-2.51,0 -4.56,2.05 -4.56,4.56l-0.08 138.81c-0,5.82 -5.69,11.03 -11.43,11.03l-209.19 0c-5.73,0 -11.43,-5.2 -11.43,-11.03l0 -207.27c0,-3.42 1.91,-6.26 4.65,-8.17 2.68,-1.87 6.12,-2.86 9.39,-2.86l182.57 0c2.15,0 3.91,-1.76 3.91,-3.91l0 -0.21c0,-2.15 -1.76,-3.91 -3.91,-3.91z"/>
   <path class="fil2" d="M193.31 50.39l13.27 0 0 62.18 -13.27 0 0 -62.18zm-9.4 -1.5l0 65.19c0,1.53 0.12,3.73 1.14,4.98 0.91,1.12 2.6,1.49 3.96,1.68 1.28,0.18 2.61,0.23 3.9,0.24 1.74,0.02 3.48,-0.02 5.21,-0.07 4.82,-0.14 9.63,-0.31 14.45,-0.31 0.88,0 1.71,-0.8 2.2,-1.45 0.69,-0.94 1.2,-2.22 1.2,-3.39l0 -68.53c0,-1.17 -0.5,-2.46 -1.2,-3.4 -0.49,-0.66 -1.32,-1.45 -2.2,-1.45 -4.83,0 -9.63,-0.17 -14.45,-0.31 -1.73,-0.05 -3.48,-0.09 -5.21,-0.07 -1.29,0.02 -2.62,0.07 -3.9,0.24 -1.36,0.19 -3.04,0.55 -3.96,1.68 -1.02,1.25 -1.14,3.45 -1.14,4.98z"/>
  </g>
 </g>
</svg>
