<?xml version="1.0" encoding="UTF-8"?>
<!DOCTYPE svg PUBLIC "-//W3C//DTD SVG 1.1//EN" "http://www.w3.org/Graphics/SVG/1.1/DTD/svg11.dtd">
<!-- Creator: CorelDRAW -->
<svg xmlns="http://www.w3.org/2000/svg" xml:space="preserve" width="10.7627in" height="4.28303in" version="1.1" style="shape-rendering:geometricPrecision; text-rendering:geometricPrecision; image-rendering:optimizeQuality; fill-rule:evenodd; clip-rule:evenodd"
viewBox="0 0 1743.49 693.82"
 xmlns:xlink="http://www.w3.org/1999/xlink"
 xmlns:xodm="http://www.corel.com/coreldraw/odm/2003">
 <defs>
  <style type="text/css">
   <![CDATA[
    .fil2 {fill:#038F8F;fill-rule:nonzero}
    .fil3 {fill:#ADF5FF;fill-rule:nonzero}
    .fil0 {fill:#ADF5FF;fill-rule:nonzero}
    .fil1 {fill:white;fill-rule:nonzero}
   ]]>
  </style>
 </defs>
 <g id="Layer_x0020_1">
  <metadata id="CorelCorpID_0Corel-Layer"/>
  <g id="_1481278168464">
   <path class="fil0" d="M633.29 88.59l-290.72 0c-63.49,0 -114.97,51.49 -114.97,114.97l405.69 0c14.69,-0 26.6,-11.91 26.6,-26.6l0 -61.8c-0.01,-14.68 -11.92,-26.58 -26.6,-26.58 0,0 0,0 0,0l-0 0z"/>
   <path class="fil1" d="M918.89 380.04l1.92 13.76 -718.58 0c-47.25,-0 -85.57,38.32 -85.57,85.57l0 143.63 815.97 0 0 -144.2 11.46 82.3 526.07 30.94c2.54,0.14 5.14,0.22 7.7,0.22 55.03,0 104.24,-34.41 123.13,-86.08l122.38 -311.83 -804.47 185.68z"/>
   <path class="fil2" d="M938.88 393.97c-0.07,8.82 -6.6,16.48 -15.59,17.72 -0.83,0.12 -1.66,0.17 -2.48,0.17l0 0.04 -718.58 0c-18.63,0 -35.49,7.55 -47.7,19.76 -12.25,12.25 -19.83,29.12 -19.83,47.7l0.07 0 0 125.53 779.75 0 0 -126.09c0,-10 8.11,-18.11 18.11,-18.11 9.57,0 17.41,7.43 18.06,16.84l9.24 66.41 511.54 30.09c1.46,0.08 2.47,0.13 3.05,0.15 0.34,0.01 0.7,-0.02 3.32,-0.02 23.8,0 46.27,-7.39 64.79,-20.34 18.56,-12.97 33.22,-31.52 41.36,-53.79l0.16 -0.42 -0.02 -0.01 109.86 -279.93 -755.12 174.29zm-736.65 -18.28l699.12 0c1.59,-6.4 6.64,-11.69 13.51,-13.26l803.97 -185.57c3.56,-0.92 7.43,-0.78 11.11,0.66 9.3,3.63 13.89,14.12 10.26,23.42l-122.38 311.83 -0.01 -0.01c-10.78,29.21 -30.09,53.56 -54.51,70.63 -24.57,17.18 -54.22,26.99 -85.44,26.99l-4.31 -0.13c-1.71,-0.05 -3.04,-0.1 -3.98,-0.15l-518.83 -30.51 0 43.41c0,10 -8.11,18.11 -18.11,18.11l-815.97 0c-10,0 -18.11,-8.11 -18.11,-18.11l0 -143.63 0.07 -0.01c0,-28.67 11.58,-54.59 30.3,-73.31 18.76,-18.76 44.68,-30.37 73.31,-30.37z"/>
   <circle class="fil3" cx="141.87" cy="551.95" r="123.76"/>
   <path class="fil2" d="M247.53 551.95c0,-29.18 -11.83,-55.59 -30.94,-74.71 -19.12,-19.12 -45.53,-30.94 -74.71,-30.94 -29.18,0 -55.59,11.82 -74.71,30.94 -19.12,19.12 -30.94,45.53 -30.94,74.71 0,29.18 11.83,55.59 30.94,74.71 19.12,19.12 45.53,30.94 74.71,30.94 29.18,0 55.59,-11.83 74.71,-30.94 19.12,-19.12 30.94,-45.53 30.94,-74.71zm-5.33 -100.32c25.67,25.67 41.55,61.14 41.55,100.32 0,39.17 -15.88,74.64 -41.56,100.32 -25.67,25.67 -61.14,41.56 -100.32,41.56 -39.17,0 -74.64,-15.88 -100.32,-41.55 -25.67,-25.67 -41.56,-61.14 -41.56,-100.32 0,-39.18 15.88,-74.65 41.55,-100.32 25.67,-25.67 61.14,-41.55 100.32,-41.55 39.17,0 74.64,15.88 100.32,41.56z"/>
   <circle class="fil1" cx="141.87" cy="551.95" r="55.01"/>
   <path class="fil2" d="M178.78 551.95c0,-10.19 -4.13,-19.42 -10.81,-26.1 -6.68,-6.68 -15.91,-10.81 -26.1,-10.81 -10.19,0 -19.42,4.13 -26.1,10.81 -6.68,6.68 -10.81,15.9 -10.81,26.1 0,10.19 4.13,19.42 10.81,26.09 6.68,6.68 15.9,10.81 26.09,10.81 10.19,0 19.42,-4.13 26.09,-10.81 6.68,-6.68 10.81,-15.9 10.81,-26.09zm14.8 -51.7c13.23,13.23 21.42,31.51 21.42,51.7 0,20.19 -8.19,38.47 -21.42,51.7 -13.23,13.23 -31.51,21.42 -51.7,21.42 -20.19,0 -38.47,-8.19 -51.7,-21.42 -13.23,-13.23 -21.42,-31.51 -21.42,-51.7 0,-20.19 8.19,-38.47 21.42,-51.7 13.23,-13.23 31.51,-21.42 51.7,-21.42 20.19,0 38.47,8.19 51.7,21.42z"/>
   <circle class="fil3" cx="967.02" cy="551.95" r="123.76"/>
   <path class="fil2" d="M1072.67 551.95c0,-29.18 -11.83,-55.59 -30.94,-74.71 -19.12,-19.12 -45.53,-30.94 -74.71,-30.94 -29.18,0 -55.59,11.83 -74.71,30.94 -19.12,19.12 -30.94,45.53 -30.94,74.71 0,29.18 11.83,55.59 30.94,74.71 19.12,19.12 45.53,30.94 74.71,30.94 29.18,0 55.59,-11.83 74.71,-30.94 19.12,-19.12 30.94,-45.53 30.94,-74.71zm-5.34 -100.32c25.67,25.67 41.55,61.14 41.55,100.32 0,39.17 -15.88,74.64 -41.56,100.32 -25.67,25.67 -61.14,41.56 -100.32,41.56 -39.17,0 -74.64,-15.88 -100.32,-41.56 -25.67,-25.67 -41.56,-61.14 -41.56,-100.32 0,-39.18 15.88,-74.64 41.55,-100.32 25.67,-25.67 61.14,-41.56 100.32,-41.56 39.17,0 74.64,15.88 100.32,41.56z"/>
   <circle class="fil1" cx="967.02" cy="551.95" r="55.01"/>
   <path class="fil2" d="M1003.92 551.95c0,-10.19 -4.13,-19.42 -10.81,-26.1 -6.68,-6.68 -15.91,-10.81 -26.1,-10.81 -10.19,0 -19.42,4.13 -26.1,10.81 -6.68,6.68 -10.81,15.9 -10.81,26.1 0,10.19 4.13,19.42 10.81,26.09 6.68,6.68 15.9,10.81 26.09,10.81 10.19,0 19.42,-4.13 26.09,-10.81 6.68,-6.68 10.81,-15.9 10.81,-26.09zm14.8 -51.7c13.23,13.23 21.42,31.51 21.42,51.7 0,20.19 -8.19,38.47 -21.42,51.7 -13.23,13.23 -31.51,21.42 -51.7,21.42 -20.19,0 -38.47,-8.19 -51.7,-21.42 -13.23,-13.23 -21.42,-31.51 -21.42,-51.7 0,-20.19 8.19,-38.47 21.42,-51.7 13.23,-13.23 31.51,-21.42 51.7,-21.42 20.19,0 38.47,8.19 51.7,21.42z"/>
   <path class="fil2" d="M325.23 25.02l301.1 0c14.28,0 27.22,5.79 36.58,15.15 9.36,9.36 15.15,22.3 15.15,36.58l0 93.2c0,14.28 -5.79,27.22 -15.15,36.58 -9.36,9.36 -22.29,15.15 -36.58,15.15l-461.56 0c-10,0 -18.11,-8.11 -18.11,-18.11 0,-0.58 0.03,-1.16 0.08,-1.73 0.46,-48.66 20.33,-92.63 52.23,-124.53 32.31,-32.31 76.95,-52.3 126.25,-52.3zm301.1 36.22l-301.1 0c-39.3,0 -74.89,15.94 -100.65,41.69 -21.77,21.77 -36.54,50.51 -40.62,82.54l442.37 0c4.28,0 8.16,-1.74 10.97,-4.54 2.81,-2.81 4.54,-6.69 4.54,-10.97l0 -93.2c0,-4.28 -1.74,-8.16 -4.54,-10.97 -2.81,-2.81 -6.69,-4.54 -10.97,-4.54z"/>
   <rect class="fil1" x="219.8" y="203.55" width="385.07" height="187.95"/>
   <path class="fil2" d="M237.91 373.39l348.85 0 0 -151.73 -348.85 0 0 151.73zm366.96 36.22l-385.07 0c-10,0 -18.11,-8.11 -18.11,-18.11l0 -187.95c0,-10 8.11,-18.11 18.11,-18.11l385.07 0c10,0 18.11,8.11 18.11,18.11l0 187.95c0,10 -8.11,18.11 -18.11,18.11z"/>
   <path class="fil0" d="M1725.42 200.61l-800.57 175.99 -37.31 -142.26 696.34 -153.82c57.56,-12.23 115.16,19.61 128.68,71.14l12.86 48.96z"/>
   <path class="fil2" d="M1729.24 218.29l-800.57 175.99c-9.77,2.11 -19.4,-4.1 -21.51,-13.87l-0.09 -0.46 -37.01 -141.1c-2.5,-9.65 3.3,-19.5 12.95,-22 0.41,-0.11 0.83,-0.2 1.24,-0.28l695.89 -153.72 -0.01 -0.04c33.17,-7.05 66.4,-1.38 93.31,13.5 27.46,15.18 48.48,39.95 56.58,70.73l0.02 -0 12.86 48.95c2.54,9.65 -3.23,19.53 -12.88,22.07l-0.78 0.19 0.01 0.03zm-791.34 136.91l765.26 -168.23 -8.07 -30.72 0.02 -0.01 -0.02 -0.07c-5.44,-20.72 -19.96,-37.61 -39.05,-48.16 -19.66,-10.87 -44.02,-15 -68.41,-9.82l-0.01 -0.04 -677.87 149.74 28.14 107.3z"/>
   <path class="fil3" d="M1256.21 19.27l-353.88 78.93c-22.73,5.06 -38.9,25.24 -38.9,48.52 0,4.45 0.6,8.9 1.78,13.18l20.14 73.18 516.32 -115.15 -106.2 -89.5c-8.18,-6.68 -18.44,-10.33 -29.01,-10.33 -3.45,0 -6.9,0.39 -10.26,1.16l0 0z"/>
   <path class="fil2" d="M1258.56 37.23l-352.33 78.58c-7.19,1.6 -13.38,5.63 -17.79,11.13 -4.34,5.42 -6.89,12.33 -6.89,19.78 0,1.67 0.08,3.09 0.23,4.24 0.2,1.51 0.48,2.92 0.84,4.2l15.57 56.58 464.03 -103.49 -78.12 -65.83 -0.02 0.02c-2.46,-2.01 -5.25,-3.57 -8.23,-4.63 -2.95,-1.05 -6.12,-1.6 -9.39,-1.6 -1.24,0 -2.3,0.05 -3.17,0.15 -0.71,0.08 -1.4,0.18 -2.08,0.31 -0.86,0.25 -1.75,0.43 -2.67,0.55zm-360.12 43.35l352.76 -78.68c0.32,-0.09 0.65,-0.18 0.97,-0.25 2.39,-0.55 4.78,-0.95 7.16,-1.22 2.54,-0.29 4.93,-0.43 7.13,-0.43 7.31,0 14.55,1.28 21.41,3.72 6.83,2.43 13.26,6.04 18.98,10.71l-0.02 0.02 105.9 89.24c3.21,2.49 5.6,6.07 6.54,10.35 2.15,9.73 -4,19.36 -13.72,21.5l-516.32 115.15c-9.34,2.07 -18.75,-3.55 -21.29,-12.87l-20.14 -73.18c-0.82,-3 -1.44,-5.97 -1.83,-8.87 -0.44,-3.25 -0.66,-6.28 -0.66,-9.05 0,-15.84 5.54,-30.66 14.96,-42.42 9.36,-11.68 22.62,-20.26 38.16,-23.72z"/>
   <path class="fil2" d="M910.41 324.37c-9.73,2.15 -19.36,-4 -21.5,-13.72 -2.15,-9.73 4,-19.36 13.72,-21.5l793.86 -177.05c9.73,-2.15 19.36,4 21.5,13.72 2.15,9.73 -3.99,19.36 -13.72,21.5l-793.86 177.05z"/>
   <polygon class="fil1" points="921.18,396.08 604.86,391.5 604.86,336.5 889.09,258.56 "/>
   <path class="fil2" d="M919.58 414.1l-314.93 -4.56c-9.89,-0.12 -17.83,-8.17 -17.83,-18.04l-0.07 0 0 -55c0,-8.92 6.45,-16.34 14.94,-17.83l282.66 -77.51c9.61,-2.62 19.52,3.05 22.14,12.66l0.16 0.65 0.05 -0.01 32.08 137.52c2.27,9.73 -3.78,19.45 -13.51,21.72 -1.92,0.45 -3.84,0.57 -5.7,0.4zm-296.61 -40.38l275.35 3.99 -22.58 -96.79 -252.77 69.31 0 23.48z"/>
   <path class="fil2" d="M864.27 157.7c9.57,-2.81 19.61,2.67 22.42,12.24 2.81,9.57 -2.67,19.61 -12.24,22.42l-95.38 28.1c-10.8,3.18 -19.93,9.77 -26.38,18.38 -6.43,8.6 -10.15,19.23 -10.15,30.54 0,2.13 0.13,4.23 0.38,6.27 0.27,2.16 0.64,4.21 1.13,6.15l3.98 15.78c2.42,9.69 -3.47,19.51 -13.16,21.93 -9.69,2.42 -19.51,-3.47 -21.93,-13.16l-3.98 -15.78c-0.89,-3.55 -1.55,-7.07 -1.98,-10.53 -0.44,-3.57 -0.66,-7.13 -0.66,-10.65 0,-19.31 6.37,-37.48 17.37,-52.19 10.98,-14.69 26.62,-25.93 45.19,-31.4l95.38 -28.1z"/>
   <path class="fil3" d="M193.99 267.06l186.22 0c17.14,-0 31.05,13.9 31.05,31.04l-0 0c0,17.14 -13.9,31.04 -31.04,31.04l-186.22 0c-17.14,-0 -31.04,-13.9 -31.04,-31.04l-0 0c0,-17.14 13.9,-31.04 31.05,-31.04z"/>
   <path class="fil2" d="M193.99 248.95l186.22 0c13.53,0 25.79,5.5 34.69,14.4 8.89,8.89 14.4,21.18 14.4,34.74l0.07 0c0,13.53 -5.53,25.82 -14.47,34.75 -8.9,8.89 -21.16,14.4 -34.68,14.4l0 -0.07 -186.22 0c-13.57,-0 -25.83,-5.48 -34.68,-14.33l-0.04 -0.04 -0.04 0.04c-8.89,-8.89 -14.4,-21.18 -14.4,-34.75 0,-13.57 5.5,-25.85 14.4,-34.75 8.9,-8.89 21.19,-14.4 34.75,-14.4zm186.22 36.22l-186.22 0c-3.57,-0 -6.81,1.44 -9.14,3.78 -2.34,2.34 -3.79,5.57 -3.79,9.14 0,3.57 1.45,6.8 3.79,9.14l-0.04 0.04c2.38,2.36 5.63,3.82 9.18,3.82l186.22 -0 0 -0.07c3.62,0 6.88,-1.45 9.22,-3.79 2.3,-2.3 3.72,-5.52 3.72,-9.14l0.07 -0.01c0,-3.56 -1.45,-6.79 -3.79,-9.13 -2.34,-2.34 -5.6,-3.78 -9.22,-3.78z"/>
   <path class="fil0" d="M431.94 458.45l243.13 0c39.99,-0 72.42,32.43 72.42,72.42l-0 72.42c0,39.99 -32.43,72.42 -72.42,72.42l-243.13 0c-39.99,-0 -72.42,-32.43 -72.42,-72.42l-0 -72.42c0,-39.99 32.43,-72.42 72.42,-72.42z"/>
   <path class="fil2" d="M431.94 440.34l243.13 0c24.99,0 47.63,10.14 64.01,26.52 16.38,16.38 26.52,39.01 26.52,64.01l-0.07 0 -0 72.42 0.07 0c0,25 -10.13,47.63 -26.52,64.01 -16.34,16.34 -38.97,26.45 -64.01,26.45l0 0.07 -243.14 0c-24.99,0 -47.63,-10.14 -64.01,-26.52 -16.38,-16.38 -26.52,-39.02 -26.52,-64.01l0 -72.42c0,-24.99 10.14,-47.63 26.52,-64.01 16.38,-16.38 39.02,-26.52 64.01,-26.52zm243.13 36.22l-243.13 0c-15,0 -28.57,6.08 -38.4,15.91 -9.83,9.83 -15.91,23.41 -15.91,38.4l0 72.42c0,15 6.08,28.58 15.91,38.4 9.83,9.83 23.41,15.91 38.4,15.91l243.13 0 0.01 0.07c14.94,-0 28.53,-6.11 38.4,-15.98 9.83,-9.83 15.91,-23.4 15.91,-38.4l0.07 -0.01 0 -72.42 -0.07 0c0,-15 -6.08,-28.57 -15.91,-38.4 -9.83,-9.83 -23.41,-15.91 -38.4,-15.91z"/>
  </g>
 </g>
</svg>
